<svg xmlns="http://www.w3.org/2000/svg" width="57.498" height="28.898" viewBox="0 0 57.498 28.898">
  <g id="active-rightarrow" transform="translate(-1438.03 -722.642)">
    <path id="Path_660" data-name="Path 660" d="M1438.03,736.894c.292-.915.994-1.092,1.849-1.091q25.154.011,50.307.005h.839c-.241-.26-.382-.423-.533-.575q-4.978-4.986-9.959-9.971c-.106-.106-.216-.208-.315-.32a1.3,1.3,0,1,1,1.816-1.848c.127.11.245.231.364.35l12.428,12.425c.929.928.935,1.56.02,2.475l-12.625,12.625a1.348,1.348,0,0,1-1.981.246,1.243,1.243,0,0,1-.206-1.67,5.043,5.043,0,0,1,.559-.627q4.959-4.965,9.923-9.927c.141-.142.276-.29.522-.55h-.824q-25.182,0-50.364.006a1.729,1.729,0,0,1-1.82-.992Z"/>
  </g>
</svg>
