<svg xmlns="http://www.w3.org/2000/svg" width="80.118" height="121.679" viewBox="0 0 80.118 121.679">
  <path id="Subtraction_16" data-name="Subtraction 16" d="M20.437,3.131a1.322,1.322,0,0,0-.8.489,1.43,1.43,0,0,0,.043,2.088l.076.088.082.09.083.087.085.084.132.128.089.083.185.168.227.2c.9.814,1.788,1.59,2.849,2.506l1.434,1.237.714.622-.112.557-5.98-.519A29.324,29.324,0,0,0,12.9,11.2,26.89,26.89,0,0,0,2.677,14.835a29.208,29.208,0,0,0-7.73,6.843,30.864,30.864,0,0,0-6.79,18.08c-.167,7.137,1.93,13.937,6.409,20.789a50.014,50.014,0,0,0,7.724,9.289,39.264,39.264,0,0,0,10.014,6.8,3.192,3.192,0,0,1,2.013,2.6l.016.106a29.635,29.635,0,0,0,2.742,8.64,41.833,41.833,0,0,0,4.9,7.628,68.859,68.859,0,0,0,14.451,13.664A73.742,73.742,0,0,0,54.141,118.3l.392.136a10.073,10.073,0,0,0,3.24.614.811.811,0,0,0,.116-.008,1.949,1.949,0,0,0,1.378-1.067c.095-.464-.513-1.228-.97-1.58a1.88,1.88,0,0,0-.815-.3l-.411-.073a3.39,3.39,0,0,1-.5-.127,74.594,74.594,0,0,1-19.639-10.334,63.8,63.8,0,0,1-8.193-7.3,64.565,64.565,0,0,1-6.989-8.862,21.637,21.637,0,0,1-3.832-10.278l.3.047.877.131c.307.046.716.11,1.13.2a22.672,22.672,0,0,0,7.924.3,25.959,25.959,0,0,0,9.82-3.64,12.359,12.359,0,0,0,3.546-3.183,10.745,10.745,0,0,0,1.858-3.993,12.1,12.1,0,0,0-1.579-8.917,14.9,14.9,0,0,0-5.947-5.746A12.325,12.325,0,0,0,28.5,53.083a14.282,14.282,0,0,0-8.654,4.871A23.792,23.792,0,0,0,14.172,70.8l-.2,1.394c-.027.194-.065.448-.105.7a.293.293,0,0,1-.042.1l-.032.049-.086.133-.057.091a.265.265,0,0,0-.035.053,3.453,3.453,0,0,1-.981-.241A45.854,45.854,0,0,1-.775,61.609,38.308,38.308,0,0,1-7.983,45.6,26.179,26.179,0,0,1-4.7,26.921a26.85,26.85,0,0,1,14.9-11.76,17.747,17.747,0,0,1,2.864-.624,33.111,33.111,0,0,1,12.992.936l-2.833,1.869-.8.533c-.084.053-.166.109-.252.169l-.013.008c-.1.066-.209.132-.3.189l-.315.184-.208.125a2.744,2.744,0,0,0-.868.736,2.088,2.088,0,0,0-.292,1.836,1.984,1.984,0,0,0,1.67.54c.035,0,.071-.011.106-.019a4,4,0,0,0,1.3-.65l.34-.233c.161-.111.315-.211.458-.3l1.078-.645,2.157-1.287c1.372-.817,2.842-1.7,4.3-2.6,1.066-.66,1.582-1.261,1.625-1.892s-.383-1.281-1.334-2.064c-2.979-2.453-6.052-4.964-9.39-7.676-.064-.051-.132-.107-.2-.166L21.9,3.814,21.771,3.7l-.085-.071-.09-.067c-.022-.018-.045-.035-.062-.047l-.015-.011L21.507,3.5l-.092-.063A1.39,1.39,0,0,0,20.437,3.131Zm7.171,73.345A19.167,19.167,0,0,1,17.6,75.15a19.213,19.213,0,0,1,.943-8.288,18.73,18.73,0,0,1,4.175-7.092A10.846,10.846,0,0,1,28.949,56.4a8.921,8.921,0,0,1,5.276.885A11.523,11.523,0,0,1,38.637,61.4a8.825,8.825,0,0,1,1.469,6.955,8.352,8.352,0,0,1-4.282,5.2A23.268,23.268,0,0,1,27.607,76.476Z" transform="matrix(-0.998, -0.07, 0.07, -0.998, 59.456, 123.433)" fill="#899199" stroke="rgba(0,0,0,0)" stroke-miterlimit="10" stroke-width="1"/>
</svg>
