<?xml version="1.0" encoding="utf-8"?>
<!-- Generator: Adobe Illustrator 24.3.0, SVG Export Plug-In . SVG Version: 6.00 Build 0)  -->
<svg version="1.1" id="Layer_1" xmlns="http://www.w3.org/2000/svg" xmlns:xlink="http://www.w3.org/1999/xlink" x="0px" y="0px"
	 viewBox="0 0 186 186" style="enable-background:new 0 0 186 186;" xml:space="preserve">
<style type="text/css">
	.st0{fill:url(#Ellipse_24_1_);}
	.st1{fill:#FFFFFF;}
</style>
<linearGradient id="Ellipse_24_1_" gradientUnits="userSpaceOnUse" x1="-503.1817" y1="406.5688" x2="-502.3647" y2="406.0468" gradientTransform="matrix(186 0 0 -186 93610 75667)">
	<stop  offset="0" style="stop-color:#000000"/>
	<stop  offset="1" style="stop-color:#FAFA33"/>
</linearGradient>
<circle id="Ellipse_24" class="st0" cx="93" cy="93" r="93"/>
<rect x="73.6" y="55.3" class="st1" width="5.2" height="28.9"/>
<circle class="st1" cx="76.2" cy="55.3" r="5.4"/>
<rect x="109.5" y="55.3" class="st1" width="5.2" height="28.9"/>
<circle class="st1" cx="112.1" cy="55.3" r="5.4"/>
<path class="st1" d="M129.1,87c-0.1-9-7.5-16.3-16.5-16.1H74.4c-0.9,0-1.8,0-2.6,0.2c-8,1.2-13.9,8-13.9,16v25.9
	c0,1.4,0.2,2.7,0.5,4c1.6,6,6.4,10.6,12.4,11.9l24.3,0.3h17.3c1.2,0,2.4-0.1,3.5-0.3c7.8-1.5,13.3-8.3,13.2-16.2V87.3
	C129.1,87.2,129.1,87.1,129.1,87z M79.5,99.1c-3.4,0-6.1-2.7-6.1-6.1s2.7-6.1,6.1-6.1c3.4,0,6.1,2.7,6.1,6.1S82.9,99.1,79.5,99.1z
	 M106.5,99.1c-3.4,0-6.1-2.7-6.1-6.1s2.7-6.1,6.1-6.1c3.4,0,6.1,2.7,6.1,6.1S109.8,99.1,106.5,99.1z"/>
</svg>
