<svg xmlns="http://www.w3.org/2000/svg" xmlns:xlink="http://www.w3.org/1999/xlink" width="901.485" height="174.915" viewBox="0 0 901.485 174.915">
  <defs>
    <linearGradient id="linear-gradient" y1="2.283" x2="1" y2="2.283" gradientUnits="objectBoundingBox">
      <stop offset="0" stop-color="#f06852"/>
      <stop offset="1" stop-color="#e5482d"/>
    </linearGradient>
    <linearGradient id="linear-gradient-2" x1="0" y1="1.284" x2="1" y2="1.284" xlink:href="#linear-gradient"/>
    <linearGradient id="linear-gradient-3" x1="0" y1="0.284" x2="1" y2="0.284" xlink:href="#linear-gradient"/>
    <linearGradient id="linear-gradient-4" x1="0" y1="1.284" x2="1" y2="1.284" xlink:href="#linear-gradient"/>
    <linearGradient id="linear-gradient-5" x1="0" y1="0.284" x2="1" y2="0.284" xlink:href="#linear-gradient"/>
    <linearGradient id="linear-gradient-6" x1="10.599" y1="17.693" x2="14.734" y2="25.513" gradientUnits="objectBoundingBox">
      <stop offset="0" stop-color="#e5482d"/>
      <stop offset="0.32" stop-color="#e64c32"/>
      <stop offset="0.68" stop-color="#eb5840"/>
      <stop offset="1" stop-color="#f06852"/>
    </linearGradient>
    <linearGradient id="linear-gradient-7" x1="0" y1="0.284" x2="1" y2="0.284" xlink:href="#linear-gradient"/>
    <linearGradient id="linear-gradient-8" x1="11.127" y1="18.691" x2="15.262" y2="26.511" xlink:href="#linear-gradient-6"/>
  </defs>
  <g id="bf_logo" data-name="bf logo" transform="translate(-470.781 -162.993)">
    <g id="Group_62" data-name="Group 62" transform="translate(58.181 38.793)">
      <path id="Path_84" data-name="Path 84" d="M538.9,167.981,582.611,124.2l43.711,43.781-43.711,43.711Z" transform="translate(-38.808)" fill="url(#linear-gradient)"/>
      <path id="Path_85" data-name="Path 85" d="M602,231.111,645.711,187.4l43.711,43.711-43.711,43.711Z" transform="translate(-58.197 -19.419)" fill="url(#linear-gradient-2)"/>
      <path id="Path_86" data-name="Path 86" d="M665.1,294.211,708.811,250.5l43.711,43.711-43.711,43.711Z" transform="translate(-77.585 -38.808)" fill="url(#linear-gradient-3)"/>
      <path id="Path_87" data-name="Path 87" d="M475.8,231.111,519.511,187.4l43.711,43.711-43.711,43.711Z" transform="translate(-19.419 -19.419)" fill="url(#linear-gradient-4)"/>
      <path id="Path_88" data-name="Path 88" d="M538.9,294.211,582.611,250.5l43.711,43.711-43.711,43.711Z" transform="translate(-38.808 -38.808)" fill="url(#linear-gradient-5)"/>
      <path id="Path_89" data-name="Path 89" d="M602,357.311,645.711,313.6l43.711,43.711" transform="translate(-58.197 -58.197)" fill="url(#linear-gradient-6)"/>
      <path id="Path_90" data-name="Path 90" d="M412.6,294.211,456.381,250.5l43.711,43.711-43.711,43.711Z" transform="translate(0 -38.808)" fill="url(#linear-gradient-7)"/>
      <path id="Path_91" data-name="Path 91" d="M563.223,357.311,519.511,313.6,475.8,357.311" transform="translate(-19.419 -58.197)" fill="url(#linear-gradient-8)"/>
    </g>
    <g id="Group_63" data-name="Group 63" transform="translate(367.534 -190.801)">
      <path id="Path_92" data-name="Path 92" d="M770.586,426.605v30.152H763.4V414.42c3.125,0,6.249-.156,9.374,0,.625,0,1.25,1.094,1.562,1.718,3.281,7.811,6.405,15.467,9.686,23.278.312.781.625,1.406,1.25,2.656,1.094-2.5,1.875-4.531,2.812-6.718,2.656-6.405,5.312-12.811,7.968-19.372a2.57,2.57,0,0,1,2.812-1.875c2.656.156,5.312,0,8.124,0V456.6h-7.03V426.762l-.469-.156c-.312.781-.781,1.719-1.094,2.5-3.593,8.592-7.186,17.185-10.623,25.777-.469,1.094-.937,1.875-2.343,1.875a2.239,2.239,0,0,1-2.343-1.875L771.836,427.7c-.156-.469-.469-.937-.625-1.406Z" transform="translate(197.245 0.205)" stroke="#000" stroke-width="1"/>
      <path id="Path_93" data-name="Path 93" d="M412.6,456.638V414.456c.625,0,1.25-.156,1.719-.156h19.528a25.552,25.552,0,0,1,3.437.312c5.468.937,8.749,4.062,9.53,8.9s-1.25,8.592-6.405,11.4a10.708,10.708,0,0,1,7.03,7.968c1.406,7.186-2.343,13.123-9.686,13.592C429.473,457.106,421.193,456.638,412.6,456.638Zm8.9-17.654c0,3.125-.156,5.937,0,8.749,0,.469,1.094,1.25,1.719,1.25,3.281.156,6.405.156,9.686,0,3.593,0,5.468-1.875,5.468-4.843a5.146,5.146,0,0,0-4.843-5.155h-.469C429.473,438.828,425.723,438.984,421.5,438.984Zm.156-17.029v9.217h10.78c3.281,0,5.155-1.719,5.312-4.374a4.6,4.6,0,0,0-4.531-4.843H421.661Z" transform="translate(0 0.325)" stroke="#000" stroke-width="1"/>
      <path id="Path_94" data-name="Path 94" d="M664.149,456.719H655.4V414.225c2.812,0,5.624-.156,8.436,0,.625,0,1.25.781,1.718,1.406,5.468,7.5,11.092,15,16.56,22.5l1.875,2.5v-26.4h8.9v42.494c-2.656,0-5.468.156-8.124,0-.625,0-1.25-.937-1.718-1.562-5.78-7.811-11.4-15.466-17.029-23.278l-1.875-2.5Z" transform="translate(136.52 0.244)" stroke="#000" stroke-width="1"/>
      <path id="Path_95" data-name="Path 95" d="M483.984,457.8c-12.967,0-22.184-9.374-22.184-22.028s9.374-21.872,22.341-21.872,22.34,9.374,22.184,22.028S496.951,457.8,483.984,457.8Zm12.811-21.716c0-6.405-3.125-11.4-8.28-13.279a12.567,12.567,0,0,0-16.248,7.03c0,.156-.156.312-.156.469-2.812,7.811.469,16.248,7.186,18.747l1.406.469c8.9,1.875,16.091-4.062,16.091-13.435Z" transform="translate(27.664 0.1)" stroke="#000" stroke-width="1"/>
      <path id="Path_96" data-name="Path 96" d="M653.912,456.943h-9.374c-.469,0-1.25-.937-1.562-1.562-.781-1.719-.937-4.374-2.343-5.155s-4.062-.469-6.093-.469h-10a2.241,2.241,0,0,0-2.5,1.562c-2.187,5.624-2.187,5.624-8.124,5.624H609.7c2.031-5.156,3.749-9.842,5.624-14.529,3.281-8.592,6.718-17.341,10-26.09a2.5,2.5,0,0,1,2.968-2.031c2.968.156,6.718-.937,8.749.469s2.5,5.155,3.593,7.968l12.186,31.4A9.592,9.592,0,0,1,653.912,456.943Zm-21.716-32.5-.625-.156-6.249,17.341h13.123Z" transform="translate(110.824 0.175)" stroke="#000" stroke-width="1"/>
      <path id="Path_97" data-name="Path 97" d="M610.458,439.14h-20.31v17.5H581.4V414.3h8.749v16.716h20.31V414.3h8.749v42.338h-8.749Z" transform="translate(94.912 0.325)" stroke="#000" stroke-width="1"/>
      <path id="Path_98" data-name="Path 98" d="M562.145,456.819c-3.906,0-7.03.156-10.155,0a3.231,3.231,0,0,1-2.187-1.562c-3.906-5-7.655-10-11.561-15.154-2.187,1.875-3.75,3.749-3.593,6.874s0,6.405,0,9.842H525.9V414.481h8.749v17.966l.625.156,7.343-9.217c2.031-2.5,3.906-5.155,6.093-7.655a4.847,4.847,0,0,1,2.812-1.406c2.968-.156,5.937,0,9.53,0l-16.873,20Z" transform="translate(63.705 0.3)" stroke="#000" stroke-width="1"/>
      <path id="Path_99" data-name="Path 99" d="M758.653,440.46c3.437,5.468,6.718,10.623,10.155,16.4-2.968,0-5.312.156-7.655,0a3.13,3.13,0,0,1-1.875-1.562c-2.343-3.906-4.843-7.655-7.03-11.717a4.51,4.51,0,0,0-4.843-2.656,19.037,19.037,0,0,1-4.218,0v15.779H736V414.37c.625,0,1.406-.156,2.031-.156,5.937,0,11.873-.156,17.654.156,9.686.625,15.154,9.374,11.717,18.435C766.308,436.555,764.121,438.429,758.653,440.46ZM743.5,420.932v13.279c4.062,0,7.968.312,11.717,0s5.78-3.281,5.624-7.03a6.316,6.316,0,0,0-5.937-6.249c-3.749-.156-7.5.156-11.4,0Z" transform="translate(181.839 0.254)" stroke="#000" stroke-width="1"/>
      <path id="Path_100" data-name="Path 100" d="M590.511,424.311l-7.5,3.749c-5.156-7.655-13.748-7.811-19.528-2.343a14.806,14.806,0,0,0,.469,20.934l.156.156c4.531,3.906,12.967,5.312,18.747-3.125l7.5,3.593c-3.593,7.968-12.811,12.029-22.5,10a21.051,21.051,0,0,1-17.654-20.31c-.312-11.092,5.781-19.528,16.091-22.34S585.824,415.718,590.511,424.311Z" transform="translate(77.364 0)" stroke="#000" stroke-width="1"/>
      <path id="Path_101" data-name="Path 101" d="M535.108,424.411l-7.5,3.593c-6.093-7.186-13.592-8.124-19.372-2.5a14.947,14.947,0,0,0,.313,20.934c5.937,5.312,13.436,4.374,19.06-2.812l7.5,3.593c-3.906,8.124-13.123,12.029-23.278,9.842A21.089,21.089,0,0,1,494.8,436.284c-.156-10.78,6.249-19.216,16.4-21.716S530.733,415.975,535.108,424.411Z" transform="translate(46.218 0.056)" stroke="#000" stroke-width="1"/>
      <path id="Path_102" data-name="Path 102" d="M699.1,414.3h28.746v6.405H706.6V431.8h20.778v6.562H706.443v18.279H699.1Z" transform="translate(161.091 0.325)" stroke="#000" stroke-width="2"/>
      <path id="Path_103" data-name="Path 103" d="M441.4,414.3h8.749v34.37h17.966v7.968H441.4Z" transform="translate(16.193 0.325)" stroke="#000" stroke-width="1"/>
      <path id="Path_104" data-name="Path 104" d="M642.5,414.3h8.749v42.338H642.5Z" transform="translate(129.266 0.325)" stroke="#000" stroke-width="1"/>
      <path id="Path_105" data-name="Path 105" d="M730.83,456.638H723.8V414.3h7.03Z" transform="translate(174.979 0.325)" stroke="#000" stroke-width="2"/>
    </g>
  </g>
</svg>
