<svg xmlns="http://www.w3.org/2000/svg" width="252.293" height="252.367" viewBox="0 0 252.293 252.367">
  <g id="dotted-circle" transform="translate(-414.727 -23.823)">
    <path id="Path_327" data-name="Path 327" d="M482.915,96.423a4.354,4.354,0,1,0-4.353-4.355A4.356,4.356,0,0,0,482.915,96.423Z" transform="translate(57.871 57.924)" fill="#c8c8c8"/>
    <path id="Path_328" data-name="Path 328" d="M487.9,96.105a4.138,4.138,0,1,0-4.139-4.139A4.139,4.139,0,0,0,487.9,96.105Z" transform="translate(62.581 58.026)" fill="#c8c8c8"/>
    <path id="Path_329" data-name="Path 329" d="M484.384,100.941a4.139,4.139,0,1,0-4.139-4.139A4.139,4.139,0,0,0,484.384,100.941Z" transform="translate(59.397 62.408)" fill="#c8c8c8"/>
    <path id="Path_330" data-name="Path 330" d="M478.688,99.054a4.112,4.112,0,1,0-4.112-4.112A4.112,4.112,0,0,0,478.688,99.054Z" transform="translate(54.257 60.747)" fill="#c8c8c8"/>
    <path id="Path_331" data-name="Path 331" d="M478.688,93.078a4.112,4.112,0,1,0-4.112-4.112A4.112,4.112,0,0,0,478.688,93.078Z" transform="translate(54.257 55.33)" fill="#c8c8c8"/>
    <path id="Path_332" data-name="Path 332" d="M484.371,91.233a4.112,4.112,0,1,0-4.112-4.112A4.113,4.113,0,0,0,484.371,91.233Z" transform="translate(59.409 53.655)" fill="#c8c8c8"/>
    <circle id="Ellipse_79" data-name="Ellipse 79" cx="3.816" cy="3.816" r="3.816" transform="translate(556.353 146.177)" fill="#c8c8c8"/>
    <path id="Path_333" data-name="Path 333" d="M490.884,101.607a3.817,3.817,0,1,0-3.815-3.817A3.816,3.816,0,0,0,490.884,101.607Z" transform="translate(65.583 63.596)" fill="#c8c8c8"/>
    <circle id="Ellipse_80" data-name="Ellipse 80" cx="3.816" cy="3.816" r="3.816" transform="translate(542.959 164.611)" fill="#c8c8c8"/>
    <circle id="Ellipse_81" data-name="Ellipse 81" cx="3.816" cy="3.816" r="3.816" transform="translate(530.98 164.611)" fill="#c8c8c8"/>
    <circle id="Ellipse_82" data-name="Ellipse 82" cx="3.789" cy="3.789" r="3.789" transform="translate(521.315 157.597)" fill="#c8c8c8"/>
    <path id="Path_334" data-name="Path 334" d="M472.481,95.591a3.789,3.789,0,1,0-3.79-3.79A3.79,3.79,0,0,0,472.481,95.591Z" transform="translate(48.922 58.192)" fill="#c8c8c8"/>
    <path id="Path_335" data-name="Path 335" d="M474.421,89.615a3.789,3.789,0,1,0-3.788-3.788A3.79,3.79,0,0,0,474.421,89.615Z" transform="translate(50.683 52.774)" fill="#c8c8c8"/>
    <circle id="Ellipse_83" data-name="Ellipse 83" cx="3.789" cy="3.789" r="3.789" transform="translate(531.007 127.769)" fill="#c8c8c8"/>
    <circle id="Ellipse_84" data-name="Ellipse 84" cx="3.789" cy="3.789" r="3.789" transform="translate(542.986 127.769)" fill="#c8c8c8"/>
    <path id="Path_336" data-name="Path 336" d="M490.884,89.654a3.816,3.816,0,1,0-3.815-3.815A3.816,3.816,0,0,0,490.884,89.654Z" transform="translate(65.583 52.761)" fill="#c8c8c8"/>
    <path id="Path_337" data-name="Path 337" d="M497.756,95.155a3.494,3.494,0,1,0-3.493-3.495A3.5,3.5,0,0,0,497.756,95.155Z" transform="translate(72.105 58.332)" fill="#c8c8c8"/>
    <path id="Path_338" data-name="Path 338" d="M496.439,101.356a3.493,3.493,0,1,0-3.495-3.493A3.492,3.492,0,0,0,496.439,101.356Z" transform="translate(70.909 63.956)" fill="#c8c8c8"/>
    <path id="Path_339" data-name="Path 339" d="M492.71,106.488a3.494,3.494,0,1,0-3.493-3.495A3.5,3.5,0,0,0,492.71,106.488Z" transform="translate(67.53 68.607)" fill="#c8c8c8"/>
    <path id="Path_340" data-name="Path 340" d="M487.22,109.658a3.494,3.494,0,1,0-3.495-3.493A3.492,3.492,0,0,0,487.22,109.658Z" transform="translate(62.552 71.48)" fill="#c8c8c8"/>
    <path id="Path_341" data-name="Path 341" d="M480.912,110.321a3.494,3.494,0,1,0-3.493-3.493A3.494,3.494,0,0,0,480.912,110.321Z" transform="translate(56.835 72.081)" fill="#c8c8c8"/>
    <path id="Path_342" data-name="Path 342" d="M474.881,108.362a3.494,3.494,0,1,0-3.493-3.495A3.5,3.5,0,0,0,474.881,108.362Z" transform="translate(51.367 70.305)" fill="#c8c8c8"/>
    <path id="Path_343" data-name="Path 343" d="M470.157,104.077a3.466,3.466,0,1,0-3.468-3.466A3.466,3.466,0,0,0,470.157,104.077Z" transform="translate(47.107 66.472)" fill="#c8c8c8"/>
    <path id="Path_344" data-name="Path 344" d="M467.578,98.284a3.466,3.466,0,1,0-3.468-3.466A3.466,3.466,0,0,0,467.578,98.284Z" transform="translate(44.769 61.22)" fill="#c8c8c8"/>
    <circle id="Ellipse_85" data-name="Ellipse 85" cx="3.467" cy="3.467" r="3.467" transform="translate(508.879 140.481)" fill="#c8c8c8"/>
    <path id="Path_345" data-name="Path 345" d="M470.157,86.151a3.467,3.467,0,1,0-3.468-3.466A3.466,3.466,0,0,0,470.157,86.151Z" transform="translate(47.107 50.219)" fill="#c8c8c8"/>
    <circle id="Ellipse_86" data-name="Ellipse 86" cx="3.467" cy="3.467" r="3.467" transform="translate(522.781 121.346)" fill="#c8c8c8"/>
    <path id="Path_346" data-name="Path 346" d="M480.9,79.947a3.466,3.466,0,1,0-3.466-3.466A3.468,3.468,0,0,0,480.9,79.947Z" transform="translate(56.847 44.596)" fill="#c8c8c8"/>
    <path id="Path_347" data-name="Path 347" d="M487.207,80.611a3.467,3.467,0,1,0-3.468-3.466A3.466,3.466,0,0,0,487.207,80.611Z" transform="translate(62.564 45.196)" fill="#c8c8c8"/>
    <path id="Path_348" data-name="Path 348" d="M492.7,83.782a3.467,3.467,0,1,0-3.466-3.468A3.467,3.467,0,0,0,492.7,83.782Z" transform="translate(67.543 48.071)" fill="#c8c8c8"/>
    <path id="Path_349" data-name="Path 349" d="M496.439,88.952a3.494,3.494,0,1,0-3.495-3.493A3.492,3.492,0,0,0,496.439,88.952Z" transform="translate(70.909 52.709)" fill="#c8c8c8"/>
    <circle id="Ellipse_87" data-name="Ellipse 87" cx="3.171" cy="3.171" r="3.171" transform="translate(576.381 146.822)" fill="#c8c8c8"/>
    <path id="Path_350" data-name="Path 350" d="M501.691,100.962a3.172,3.172,0,1,0-3.171-3.171A3.171,3.171,0,0,0,501.691,100.962Z" transform="translate(75.964 64.182)" fill="#c8c8c8"/>
    <circle id="Ellipse_88" data-name="Ellipse 88" cx="3.171" cy="3.171" r="3.171" transform="translate(568.978 169.608)" fill="#c8c8c8"/>
    <path id="Path_351" data-name="Path 351" d="M494.306,111.129a3.172,3.172,0,1,0-3.173-3.173A3.172,3.172,0,0,0,494.306,111.129Z" transform="translate(69.267 73.399)" fill="#c8c8c8"/>
    <circle id="Ellipse_89" data-name="Ellipse 89" cx="3.171" cy="3.171" r="3.171" transform="translate(549.594 183.691)" fill="#c8c8c8"/>
    <circle id="Ellipse_90" data-name="Ellipse 90" cx="3.171" cy="3.171" r="3.171" transform="translate(537.615 185.588)" fill="#c8c8c8"/>
    <path id="Path_352" data-name="Path 352" d="M476.07,114.017a3.172,3.172,0,1,0-3.173-3.173A3.172,3.172,0,0,0,476.07,114.017Z" transform="translate(52.736 76.017)" fill="#c8c8c8"/>
    <circle id="Ellipse_91" data-name="Ellipse 91" cx="3.144" cy="3.144" r="3.144" transform="translate(514.855 178.212)" fill="#c8c8c8"/>
    <circle id="Ellipse_92" data-name="Ellipse 92" cx="3.144" cy="3.144" r="3.144" transform="translate(506.279 169.635)" fill="#c8c8c8"/>
    <path id="Path_353" data-name="Path 353" d="M463,100.923a3.145,3.145,0,1,0-3.144-3.144A3.143,3.143,0,0,0,463,100.923Z" transform="translate(40.914 64.194)" fill="#c8c8c8"/>
    <path id="Path_354" data-name="Path 354" d="M462.007,94.64a3.145,3.145,0,1,0-3.144-3.146A3.145,3.145,0,0,0,462.007,94.64Z" transform="translate(40.012 58.498)" fill="#c8c8c8"/>
    <circle id="Ellipse_93" data-name="Ellipse 93" cx="3.144" cy="3.144" r="3.144" transform="translate(500.772 134.869)" fill="#c8c8c8"/>
    <path id="Path_355" data-name="Path 355" d="M465.89,82.687a3.144,3.144,0,1,0-3.144-3.144A3.143,3.143,0,0,0,465.89,82.687Z" transform="translate(43.533 47.664)" fill="#c8c8c8"/>
    <circle id="Ellipse_94" data-name="Ellipse 94" cx="3.144" cy="3.144" r="3.144" transform="translate(514.855 115.486)" fill="#c8c8c8"/>
    <path id="Path_356" data-name="Path 356" d="M476.057,75.3a3.144,3.144,0,1,0-3.144-3.144A3.143,3.143,0,0,0,476.057,75.3Z" transform="translate(52.75 40.967)" fill="#c8c8c8"/>
    <circle id="Ellipse_95" data-name="Ellipse 95" cx="3.144" cy="3.144" r="3.144" transform="translate(537.642 108.082)" fill="#c8c8c8"/>
    <circle id="Ellipse_96" data-name="Ellipse 96" cx="3.144" cy="3.144" r="3.144" transform="translate(549.621 109.979)" fill="#c8c8c8"/>
    <path id="Path_357" data-name="Path 357" d="M494.292,78.19a3.145,3.145,0,1,0-3.144-3.146A3.145,3.145,0,0,0,494.292,78.19Z" transform="translate(69.281 43.585)" fill="#c8c8c8"/>
    <path id="Path_358" data-name="Path 358" d="M498.79,82.687a3.144,3.144,0,1,0-3.144-3.144A3.143,3.143,0,0,0,498.79,82.687Z" transform="translate(73.359 47.664)" fill="#c8c8c8"/>
    <circle id="Ellipse_97" data-name="Ellipse 97" cx="3.171" cy="3.171" r="3.171" transform="translate(574.484 134.842)" fill="#c8c8c8"/>
    <path id="Path_359" data-name="Path 359" d="M507.616,94.2a2.848,2.848,0,1,0-2.848-2.848A2.849,2.849,0,0,0,507.616,94.2Z" transform="translate(81.629 58.639)" fill="#c8c8c8"/>
    <path id="Path_360" data-name="Path 360" d="M506.817,100.523a2.848,2.848,0,1,0-2.849-2.848A2.849,2.849,0,0,0,506.817,100.523Z" transform="translate(80.904 64.369)" fill="#c8c8c8"/>
    <path id="Path_361" data-name="Path 361" d="M504.472,106.447a2.848,2.848,0,1,0-2.848-2.848A2.849,2.849,0,0,0,504.472,106.447Z" transform="translate(78.778 69.74)" fill="#c8c8c8"/>
    <path id="Path_362" data-name="Path 362" d="M500.727,111.6a2.848,2.848,0,1,0-2.848-2.848A2.849,2.849,0,0,0,500.727,111.6Z" transform="translate(75.383 74.412)" fill="#c8c8c8"/>
    <path id="Path_363" data-name="Path 363" d="M495.818,115.662a2.848,2.848,0,1,0-2.848-2.848A2.849,2.849,0,0,0,495.818,115.662Z" transform="translate(70.933 78.094)" fill="#c8c8c8"/>
    <path id="Path_364" data-name="Path 364" d="M490.053,118.375a2.848,2.848,0,1,0-2.848-2.848A2.85,2.85,0,0,0,490.053,118.375Z" transform="translate(65.706 80.553)" fill="#c8c8c8"/>
    <path id="Path_365" data-name="Path 365" d="M483.8,119.569a2.848,2.848,0,1,0-2.848-2.848A2.849,2.849,0,0,0,483.8,119.569Z" transform="translate(60.033 81.636)" fill="#c8c8c8"/>
    <path id="Path_366" data-name="Path 366" d="M477.438,119.169a2.848,2.848,0,1,0-2.85-2.848A2.849,2.849,0,0,0,477.438,119.169Z" transform="translate(54.268 81.273)" fill="#c8c8c8"/>
    <path id="Path_367" data-name="Path 367" d="M471.365,117.16a2.822,2.822,0,1,0-2.822-2.822A2.821,2.821,0,0,0,471.365,117.16Z" transform="translate(48.788 79.501)" fill="#c8c8c8"/>
    <path id="Path_368" data-name="Path 368" d="M465.986,113.746a2.822,2.822,0,1,0-2.822-2.822A2.82,2.82,0,0,0,465.986,113.746Z" transform="translate(43.912 76.406)" fill="#c8c8c8"/>
    <path id="Path_369" data-name="Path 369" d="M461.625,109.1a2.822,2.822,0,1,0-2.822-2.822A2.823,2.823,0,0,0,461.625,109.1Z" transform="translate(39.958 72.196)" fill="#c8c8c8"/>
    <path id="Path_370" data-name="Path 370" d="M458.555,103.519a2.822,2.822,0,1,0-2.822-2.822A2.823,2.823,0,0,0,458.555,103.519Z" transform="translate(37.175 67.134)" fill="#c8c8c8"/>
    <path id="Path_371" data-name="Path 371" d="M456.971,97.348a2.822,2.822,0,1,0-2.822-2.822A2.821,2.821,0,0,0,456.971,97.348Z" transform="translate(35.739 61.54)" fill="#c8c8c8"/>
    <path id="Path_372" data-name="Path 372" d="M456.971,90.977a2.822,2.822,0,1,0-2.822-2.822A2.821,2.821,0,0,0,456.971,90.977Z" transform="translate(35.739 55.764)" fill="#c8c8c8"/>
    <path id="Path_373" data-name="Path 373" d="M458.541,84.767a2.8,2.8,0,1,0-2.793-2.8A2.8,2.8,0,0,0,458.541,84.767Z" transform="translate(37.188 50.182)" fill="#c8c8c8"/>
    <path id="Path_374" data-name="Path 374" d="M461.625,79.223A2.822,2.822,0,1,0,458.8,76.4,2.823,2.823,0,0,0,461.625,79.223Z" transform="translate(39.958 45.108)" fill="#c8c8c8"/>
    <path id="Path_375" data-name="Path 375" d="M465.986,74.58a2.823,2.823,0,1,0-2.822-2.822A2.821,2.821,0,0,0,465.986,74.58Z" transform="translate(43.912 40.897)" fill="#c8c8c8"/>
    <path id="Path_376" data-name="Path 376" d="M471.352,71.126a2.8,2.8,0,1,0-2.8-2.8A2.8,2.8,0,0,0,471.352,71.126Z" transform="translate(48.801 37.816)" fill="#c8c8c8"/>
    <path id="Path_377" data-name="Path 377" d="M477.425,69.2a2.822,2.822,0,1,0-2.822-2.822A2.823,2.823,0,0,0,477.425,69.2Z" transform="translate(54.282 36.018)" fill="#c8c8c8"/>
    <path id="Path_378" data-name="Path 378" d="M483.783,68.8a2.822,2.822,0,1,0-2.822-2.822A2.823,2.823,0,0,0,483.783,68.8Z" transform="translate(60.046 35.655)" fill="#c8c8c8"/>
    <path id="Path_379" data-name="Path 379" d="M490.041,69.99a2.822,2.822,0,1,0-2.822-2.822A2.821,2.821,0,0,0,490.041,69.99Z" transform="translate(65.719 36.738)" fill="#c8c8c8"/>
    <path id="Path_380" data-name="Path 380" d="M495.806,72.7a2.822,2.822,0,1,0-2.822-2.822A2.82,2.82,0,0,0,495.806,72.7Z" transform="translate(70.945 39.196)" fill="#c8c8c8"/>
    <path id="Path_381" data-name="Path 381" d="M500.715,76.765a2.823,2.823,0,1,0-2.822-2.824A2.822,2.822,0,0,0,500.715,76.765Z" transform="translate(75.396 42.878)" fill="#c8c8c8"/>
    <path id="Path_382" data-name="Path 382" d="M504.46,81.918a2.822,2.822,0,1,0-2.822-2.822A2.823,2.823,0,0,0,504.46,81.918Z" transform="translate(78.791 47.551)" fill="#c8c8c8"/>
    <path id="Path_383" data-name="Path 383" d="M506.817,87.883a2.849,2.849,0,1,0-2.849-2.85A2.849,2.849,0,0,0,506.817,87.883Z" transform="translate(80.904 52.908)" fill="#c8c8c8"/>
    <circle id="Ellipse_98" data-name="Ellipse 98" cx="2.526" cy="2.526" r="2.526" transform="translate(596.41 147.467)" fill="#c8c8c8"/>
    <circle id="Ellipse_99" data-name="Ellipse 99" cx="2.526" cy="2.526" r="2.526" transform="translate(595.139 159.557)" fill="#c8c8c8"/>
    <path id="Path_384" data-name="Path 384" d="M509.909,106.132a2.526,2.526,0,1,0-2.526-2.526A2.527,2.527,0,0,0,509.909,106.132Z" transform="translate(83.999 70.039)" fill="#c8c8c8"/>
    <circle id="Ellipse_100" data-name="Ellipse 100" cx="2.526" cy="2.526" r="2.526" transform="translate(585.304 181.646)" fill="#c8c8c8"/>
    <path id="Path_385" data-name="Path 385" d="M502.455,116.392a2.526,2.526,0,1,0-2.526-2.526A2.527,2.527,0,0,0,502.455,116.392Z" transform="translate(77.242 79.34)" fill="#c8c8c8"/>
    <circle id="Ellipse_101" data-name="Ellipse 101" cx="2.526" cy="2.526" r="2.526" transform="translate(567.335 197.826)" fill="#c8c8c8"/>
    <path id="Path_386" data-name="Path 386" d="M491.471,122.733a2.526,2.526,0,1,0-2.526-2.526A2.526,2.526,0,0,0,491.471,122.733Z" transform="translate(67.284 85.089)" fill="#c8c8c8"/>
    <circle id="Ellipse_102" data-name="Ellipse 102" cx="2.526" cy="2.526" r="2.526" transform="translate(544.338 205.298)" fill="#c8c8c8"/>
    <circle id="Ellipse_103" data-name="Ellipse 103" cx="2.526" cy="2.526" r="2.526" transform="translate(532.181 205.298)" fill="#c8c8c8"/>
    <circle id="Ellipse_104" data-name="Ellipse 104" cx="2.499" cy="2.499" r="2.499" transform="translate(520.317 202.798)" fill="#c8c8c8"/>
    <path id="Path_387" data-name="Path 387" d="M466.784,120.1a2.5,2.5,0,1,0-2.5-2.5A2.5,2.5,0,0,0,466.784,120.1Z" transform="translate(44.927 82.751)" fill="#c8c8c8"/>
    <path id="Path_388" data-name="Path 388" d="M461.625,116.353a2.5,2.5,0,1,0-2.5-2.5A2.5,2.5,0,0,0,461.625,116.353Z" transform="translate(40.251 79.353)" fill="#c8c8c8"/>
    <path id="Path_389" data-name="Path 389" d="M457.359,111.615a2.5,2.5,0,1,0-2.5-2.5A2.5,2.5,0,0,0,457.359,111.615Z" transform="translate(36.382 75.058)" fill="#c8c8c8"/>
    <path id="Path_390" data-name="Path 390" d="M454.171,106.093a2.5,2.5,0,1,0-2.5-2.5A2.5,2.5,0,0,0,454.171,106.093Z" transform="translate(33.492 70.052)" fill="#c8c8c8"/>
    <circle id="Ellipse_105" data-name="Ellipse 105" cx="2.499" cy="2.499" r="2.499" transform="translate(481.407 159.584)" fill="#c8c8c8"/>
    <path id="Path_391" data-name="Path 391" d="M451.52,93.648a2.473,2.473,0,1,0-2.471-2.473A2.474,2.474,0,0,0,451.52,93.648Z" transform="translate(31.115 58.817)" fill="#c8c8c8"/>
    <path id="Path_392" data-name="Path 392" d="M452.188,87.307a2.473,2.473,0,1,0-2.473-2.473A2.474,2.474,0,0,0,452.188,87.307Z" transform="translate(31.719 53.069)" fill="#c8c8c8"/>
    <path id="Path_393" data-name="Path 393" d="M454.158,81.243a2.473,2.473,0,1,0-2.473-2.473A2.474,2.474,0,0,0,454.158,81.243Z" transform="translate(33.505 47.571)" fill="#c8c8c8"/>
    <path id="Path_394" data-name="Path 394" d="M457.346,75.721a2.473,2.473,0,1,0-2.473-2.473A2.472,2.472,0,0,0,457.346,75.721Z" transform="translate(36.395 42.565)" fill="#c8c8c8"/>
    <circle id="Ellipse_106" data-name="Ellipse 106" cx="2.472" cy="2.472" r="2.472" transform="translate(499.404 104.306)" fill="#c8c8c8"/>
    <path id="Path_395" data-name="Path 395" d="M466.771,67.233a2.472,2.472,0,1,0-2.473-2.471A2.472,2.472,0,0,0,466.771,67.233Z" transform="translate(44.94 34.872)" fill="#c8c8c8"/>
    <path id="Path_396" data-name="Path 396" d="M472.6,64.641a2.473,2.473,0,1,0-2.473-2.473A2.474,2.474,0,0,0,472.6,64.641Z" transform="translate(50.22 32.52)" fill="#c8c8c8"/>
    <path id="Path_397" data-name="Path 397" d="M478.833,63.314a2.472,2.472,0,1,0-2.473-2.471A2.472,2.472,0,0,0,478.833,63.314Z" transform="translate(55.875 31.319)" fill="#c8c8c8"/>
    <path id="Path_398" data-name="Path 398" d="M485.221,63.353a2.5,2.5,0,1,0-2.5-2.5A2.5,2.5,0,0,0,485.221,63.353Z" transform="translate(61.642 31.307)" fill="#c8c8c8"/>
    <path id="Path_399" data-name="Path 399" d="M491.458,64.68a2.5,2.5,0,1,0-2.5-2.5A2.5,2.5,0,0,0,491.458,64.68Z" transform="translate(67.297 32.508)" fill="#c8c8c8"/>
    <circle id="Ellipse_107" data-name="Ellipse 107" cx="2.499" cy="2.499" r="2.499" transform="translate(567.362 97.134)" fill="#c8c8c8"/>
    <path id="Path_400" data-name="Path 400" d="M502.442,71.02a2.5,2.5,0,1,0-2.5-2.5A2.5,2.5,0,0,0,502.442,71.02Z" transform="translate(77.254 38.257)" fill="#c8c8c8"/>
    <circle id="Ellipse_108" data-name="Ellipse 108" cx="2.499" cy="2.499" r="2.499" transform="translate(585.331 113.314)" fill="#c8c8c8"/>
    <circle id="Ellipse_109" data-name="Ellipse 109" cx="2.499" cy="2.499" r="2.499" transform="translate(591.409 123.842)" fill="#c8c8c8"/>
    <path id="Path_401" data-name="Path 401" d="M511.867,87.346a2.5,2.5,0,1,0-2.5-2.5A2.5,2.5,0,0,0,511.867,87.346Z" transform="translate(85.799 53.056)" fill="#c8c8c8"/>
    <path id="Path_402" data-name="Path 402" d="M517.475,93.251a2.2,2.2,0,1,0-2.2-2.2A2.2,2.2,0,0,0,517.475,93.251Z" transform="translate(91.152 58.945)" fill="#c8c8c8"/>
    <path id="Path_403" data-name="Path 403" d="M516.89,99.566a2.177,2.177,0,1,0-2.175-2.177A2.178,2.178,0,0,0,516.89,99.566Z" transform="translate(90.646 64.718)" fill="#c8c8c8"/>
    <path id="Path_404" data-name="Path 404" d="M515.193,105.714a2.176,2.176,0,1,0-2.175-2.177A2.177,2.177,0,0,0,515.193,105.714Z" transform="translate(89.108 70.294)" fill="#c8c8c8"/>
    <path id="Path_405" data-name="Path 405" d="M512.438,111.5a2.2,2.2,0,1,0-2.2-2.2A2.2,2.2,0,0,0,512.438,111.5Z" transform="translate(86.586 75.491)" fill="#c8c8c8"/>
    <path id="Path_406" data-name="Path 406" d="M508.69,116.663a2.2,2.2,0,1,0-2.2-2.2A2.205,2.205,0,0,0,508.69,116.663Z" transform="translate(83.186 80.17)" fill="#c8c8c8"/>
    <path id="Path_407" data-name="Path 407" d="M504.079,121.071a2.2,2.2,0,1,0-2.2-2.2A2.2,2.2,0,0,0,504.079,121.071Z" transform="translate(79.006 84.166)" fill="#c8c8c8"/>
    <path id="Path_408" data-name="Path 408" d="M498.755,124.586a2.2,2.2,0,1,0-2.2-2.2A2.205,2.205,0,0,0,498.755,124.586Z" transform="translate(74.179 87.353)" fill="#c8c8c8"/>
    <path id="Path_409" data-name="Path 409" d="M492.889,127.093a2.2,2.2,0,1,0-2.2-2.2A2.205,2.205,0,0,0,492.889,127.093Z" transform="translate(68.861 89.625)" fill="#c8c8c8"/>
    <path id="Path_410" data-name="Path 410" d="M486.657,128.472a2.176,2.176,0,1,0-2.177-2.177A2.176,2.176,0,0,0,486.657,128.472Z" transform="translate(63.236 90.925)" fill="#c8c8c8"/>
    <path id="Path_411" data-name="Path 411" d="M480.284,128.758a2.176,2.176,0,1,0-2.177-2.175A2.177,2.177,0,0,0,480.284,128.758Z" transform="translate(57.458 91.185)" fill="#c8c8c8"/>
    <path id="Path_412" data-name="Path 412" d="M473.962,127.9a2.176,2.176,0,1,0-2.177-2.177A2.177,2.177,0,0,0,473.962,127.9Z" transform="translate(51.727 90.409)" fill="#c8c8c8"/>
    <path id="Path_413" data-name="Path 413" d="M467.9,125.932a2.177,2.177,0,1,0-2.177-2.177A2.177,2.177,0,0,0,467.9,125.932Z" transform="translate(46.227 88.621)" fill="#c8c8c8"/>
    <circle id="Ellipse_110" data-name="Ellipse 110" cx="2.177" cy="2.177" r="2.177" transform="translate(501.235 204.435)" fill="#c8c8c8"/>
    <path id="Path_414" data-name="Path 414" d="M457.29,118.93a2.176,2.176,0,1,0-2.177-2.175A2.176,2.176,0,0,0,457.29,118.93Z" transform="translate(36.613 82.275)" fill="#c8c8c8"/>
    <path id="Path_415" data-name="Path 415" d="M453.093,114.126a2.176,2.176,0,1,0-2.177-2.175A2.177,2.177,0,0,0,453.093,114.126Z" transform="translate(32.808 77.92)" fill="#c8c8c8"/>
    <path id="Path_416" data-name="Path 416" d="M449.821,108.651a2.177,2.177,0,1,0-2.177-2.177A2.178,2.178,0,0,0,449.821,108.651Z" transform="translate(29.842 72.954)" fill="#c8c8c8"/>
    <path id="Path_417" data-name="Path 417" d="M447.578,102.677A2.176,2.176,0,1,0,445.4,100.5,2.176,2.176,0,0,0,447.578,102.677Z" transform="translate(27.81 67.54)" fill="#c8c8c8"/>
    <path id="Path_418" data-name="Path 418" d="M446.439,96.4a2.177,2.177,0,1,0-2.175-2.177A2.177,2.177,0,0,0,446.439,96.4Z" transform="translate(26.777 61.85)" fill="#c8c8c8"/>
    <path id="Path_419" data-name="Path 419" d="M446.427,89.981a2.15,2.15,0,1,0-2.149-2.149A2.15,2.15,0,0,0,446.427,89.981Z" transform="translate(26.79 56.08)" fill="#c8c8c8"/>
    <circle id="Ellipse_111" data-name="Ellipse 111" cx="2.15" cy="2.15" r="2.15" transform="translate(473.239 129.794)" fill="#c8c8c8"/>
    <path id="Path_420" data-name="Path 420" d="M449.809,77.732a2.15,2.15,0,1,0-2.151-2.151A2.151,2.151,0,0,0,449.809,77.732Z" transform="translate(29.854 44.975)" fill="#c8c8c8"/>
    <path id="Path_421" data-name="Path 421" d="M453.081,72.257a2.151,2.151,0,1,0-2.151-2.151A2.149,2.149,0,0,0,453.081,72.257Z" transform="translate(32.821 40.01)" fill="#c8c8c8"/>
    <path id="Path_422" data-name="Path 422" d="M457.278,67.453a2.151,2.151,0,1,0-2.151-2.151A2.151,2.151,0,0,0,457.278,67.453Z" transform="translate(36.626 35.655)" fill="#c8c8c8"/>
    <path id="Path_423" data-name="Path 423" d="M462.266,63.474a2.15,2.15,0,1,0-2.151-2.149A2.15,2.15,0,0,0,462.266,63.474Z" transform="translate(41.147 32.049)" fill="#c8c8c8"/>
    <circle id="Ellipse_112" data-name="Ellipse 112" cx="2.15" cy="2.15" r="2.15" transform="translate(511.972 85.46)" fill="#c8c8c8"/>
    <path id="Path_424" data-name="Path 424" d="M473.949,58.48A2.15,2.15,0,1,0,471.8,56.33,2.151,2.151,0,0,0,473.949,58.48Z" transform="translate(51.741 27.522)" fill="#c8c8c8"/>
    <path id="Path_425" data-name="Path 425" d="M480.272,57.625a2.151,2.151,0,1,0-2.151-2.151A2.149,2.149,0,0,0,480.272,57.625Z" transform="translate(57.471 26.745)" fill="#c8c8c8"/>
    <path id="Path_426" data-name="Path 426" d="M486.657,57.951a2.177,2.177,0,1,0-2.177-2.177A2.176,2.176,0,0,0,486.657,57.951Z" transform="translate(63.236 26.991)" fill="#c8c8c8"/>
    <path id="Path_427" data-name="Path 427" d="M492.876,59.371a2.177,2.177,0,1,0-2.177-2.177A2.178,2.178,0,0,0,492.876,59.371Z" transform="translate(68.874 28.279)" fill="#c8c8c8"/>
    <path id="Path_428" data-name="Path 428" d="M498.742,61.878a2.177,2.177,0,1,0-2.177-2.177A2.178,2.178,0,0,0,498.742,61.878Z" transform="translate(74.192 30.551)" fill="#c8c8c8"/>
    <path id="Path_429" data-name="Path 429" d="M504.066,65.392a2.177,2.177,0,1,0-2.177-2.177A2.177,2.177,0,0,0,504.066,65.392Z" transform="translate(79.019 33.737)" fill="#c8c8c8"/>
    <path id="Path_430" data-name="Path 430" d="M508.677,69.8a2.177,2.177,0,1,0-2.177-2.177A2.179,2.179,0,0,0,508.677,69.8Z" transform="translate(83.199 37.734)" fill="#c8c8c8"/>
    <path id="Path_431" data-name="Path 431" d="M512.425,74.96a2.176,2.176,0,1,0-2.175-2.175A2.176,2.176,0,0,0,512.425,74.96Z" transform="translate(86.598 42.413)" fill="#c8c8c8"/>
    <path id="Path_432" data-name="Path 432" d="M515.193,80.709a2.177,2.177,0,1,0-2.175-2.177A2.177,2.177,0,0,0,515.193,80.709Z" transform="translate(89.108 47.623)" fill="#c8c8c8"/>
    <path id="Path_433" data-name="Path 433" d="M516.89,86.857a2.176,2.176,0,1,0-2.175-2.175A2.176,2.176,0,0,0,516.89,86.857Z" transform="translate(90.646 53.198)" fill="#c8c8c8"/>
    <path id="Path_434" data-name="Path 434" d="M522.394,92.735a1.854,1.854,0,1,0-1.855-1.855A1.854,1.854,0,0,0,522.394,92.735Z" transform="translate(95.926 59.112)" fill="#c8c8c8"/>
    <circle id="Ellipse_113" data-name="Ellipse 113" cx="1.854" cy="1.854" r="1.854" transform="translate(615.511 160.267)" fill="#c8c8c8"/>
    <circle id="Ellipse_114" data-name="Ellipse 114" cx="1.854" cy="1.854" r="1.854" transform="translate(612.67 172.098)" fill="#c8c8c8"/>
    <circle id="Ellipse_115" data-name="Ellipse 115" cx="1.854" cy="1.854" r="1.854" transform="translate(608.015 183.338)" fill="#c8c8c8"/>
    <path id="Path_435" data-name="Path 435" d="M514.627,116.638a1.854,1.854,0,1,0-1.855-1.855A1.855,1.855,0,0,0,514.627,116.638Z" transform="translate(88.885 80.782)" fill="#c8c8c8"/>
    <circle id="Ellipse_116" data-name="Ellipse 116" cx="1.854" cy="1.854" r="1.854" transform="translate(593.756 202.963)" fill="#c8c8c8"/>
    <circle id="Ellipse_117" data-name="Ellipse 117" cx="1.854" cy="1.854" r="1.854" transform="translate(584.505 210.864)" fill="#c8c8c8"/>
    <path id="Path_436" data-name="Path 436" d="M500.188,128.969a1.854,1.854,0,1,0-1.853-1.855A1.855,1.855,0,0,0,500.188,128.969Z" transform="translate(75.797 91.961)" fill="#c8c8c8"/>
    <path id="Path_437" data-name="Path 437" d="M494.294,131.411a1.854,1.854,0,1,0-1.855-1.853A1.853,1.853,0,0,0,494.294,131.411Z" transform="translate(70.451 94.175)" fill="#c8c8c8"/>
    <path id="Path_438" data-name="Path 438" d="M488.089,132.9a1.854,1.854,0,1,0-1.855-1.855A1.854,1.854,0,0,0,488.089,132.9Z" transform="translate(64.826 95.525)" fill="#c8c8c8"/>
    <circle id="Ellipse_118" data-name="Ellipse 118" cx="1.854" cy="1.854" r="1.854" transform="translate(538.932 225.672)" fill="#c8c8c8"/>
    <path id="Path_439" data-name="Path 439" d="M475.366,132.9a1.854,1.854,0,1,0-1.855-1.855A1.854,1.854,0,0,0,475.366,132.9Z" transform="translate(53.292 95.525)" fill="#c8c8c8"/>
    <path id="Path_440" data-name="Path 440" d="M469.161,131.411a1.854,1.854,0,1,0-1.855-1.853A1.853,1.853,0,0,0,469.161,131.411Z" transform="translate(47.667 94.175)" fill="#c8c8c8"/>
    <path id="Path_441" data-name="Path 441" d="M463.265,128.969a1.854,1.854,0,1,0-1.855-1.855A1.855,1.855,0,0,0,463.265,128.969Z" transform="translate(42.321 91.961)" fill="#c8c8c8"/>
    <circle id="Ellipse_119" data-name="Ellipse 119" cx="1.854" cy="1.854" r="1.854" transform="translate(493.359 210.864)" fill="#c8c8c8"/>
    <circle id="Ellipse_120" data-name="Ellipse 120" cx="1.854" cy="1.854" r="1.854" transform="translate(484.107 202.963)" fill="#c8c8c8"/>
    <circle id="Ellipse_121" data-name="Ellipse 121" cx="1.854" cy="1.854" r="1.854" transform="translate(476.206 193.712)" fill="#c8c8c8"/>
    <path id="Path_442" data-name="Path 442" d="M445.479,111.158a1.827,1.827,0,1,0-1.826-1.826A1.828,1.828,0,0,0,445.479,111.158Z" transform="translate(26.224 75.862)" fill="#c8c8c8"/>
    <path id="Path_443" data-name="Path 443" d="M443.037,105.264a1.828,1.828,0,1,0-1.827-1.828A1.83,1.83,0,0,0,443.037,105.264Z" transform="translate(24.01 70.517)" fill="#c8c8c8"/>
    <path id="Path_444" data-name="Path 444" d="M441.547,99.057a1.827,1.827,0,1,0-1.826-1.826A1.827,1.827,0,0,0,441.547,99.057Z" transform="translate(22.659 64.891)" fill="#c8c8c8"/>
    <path id="Path_445" data-name="Path 445" d="M441.048,92.7a1.827,1.827,0,1,0-1.828-1.828A1.827,1.827,0,0,0,441.048,92.7Z" transform="translate(22.205 59.125)" fill="#c8c8c8"/>
    <path id="Path_446" data-name="Path 446" d="M441.547,86.334a1.827,1.827,0,1,0-1.826-1.826A1.827,1.827,0,0,0,441.547,86.334Z" transform="translate(22.659 53.357)" fill="#c8c8c8"/>
    <path id="Path_447" data-name="Path 447" d="M443.037,80.129a1.827,1.827,0,1,0-1.827-1.826A1.828,1.828,0,0,0,443.037,80.129Z" transform="translate(24.01 47.732)" fill="#c8c8c8"/>
    <path id="Path_448" data-name="Path 448" d="M445.479,74.234a1.827,1.827,0,1,0-1.826-1.828A1.83,1.83,0,0,0,445.479,74.234Z" transform="translate(26.224 42.388)" fill="#c8c8c8"/>
    <circle id="Ellipse_122" data-name="Ellipse 122" cx="1.827" cy="1.827" r="1.827" transform="translate(476.233 102.592)" fill="#c8c8c8"/>
    <circle id="Ellipse_123" data-name="Ellipse 123" cx="1.827" cy="1.827" r="1.827" transform="translate(484.134 93.341)" fill="#c8c8c8"/>
    <path id="Path_449" data-name="Path 449" d="M457.81,59.8a1.827,1.827,0,1,0-1.826-1.828A1.827,1.827,0,0,0,457.81,59.8Z" transform="translate(37.402 29.299)" fill="#c8c8c8"/>
    <path id="Path_450" data-name="Path 450" d="M463.251,56.462a1.827,1.827,0,1,0-1.826-1.828A1.829,1.829,0,0,0,463.251,56.462Z" transform="translate(42.335 26.276)" fill="#c8c8c8"/>
    <path id="Path_451" data-name="Path 451" d="M469.148,54.02a1.827,1.827,0,1,0-1.828-1.828A1.827,1.827,0,0,0,469.148,54.02Z" transform="translate(47.679 24.062)" fill="#c8c8c8"/>
    <circle id="Ellipse_124" data-name="Ellipse 124" cx="1.827" cy="1.827" r="1.827" transform="translate(526.83 71.586)" fill="#c8c8c8"/>
    <path id="Path_452" data-name="Path 452" d="M481.714,52.029a1.827,1.827,0,1,0-1.827-1.826A1.828,1.828,0,0,0,481.714,52.029Z" transform="translate(59.072 22.257)" fill="#c8c8c8"/>
    <circle id="Ellipse_125" data-name="Ellipse 125" cx="1.827" cy="1.827" r="1.827" transform="translate(551.087 71.586)" fill="#c8c8c8"/>
    <circle id="Ellipse_126" data-name="Ellipse 126" cx="1.827" cy="1.827" r="1.827" transform="translate(562.918 74.427)" fill="#c8c8c8"/>
    <path id="Path_453" data-name="Path 453" d="M500.176,56.462a1.827,1.827,0,1,0-1.827-1.828A1.827,1.827,0,0,0,500.176,56.462Z" transform="translate(75.809 26.276)" fill="#c8c8c8"/>
    <path id="Path_454" data-name="Path 454" d="M505.629,59.835a1.854,1.854,0,1,0-1.853-1.855A1.855,1.855,0,0,0,505.629,59.835Z" transform="translate(80.729 29.286)" fill="#c8c8c8"/>
    <circle id="Ellipse_127" data-name="Ellipse 127" cx="1.854" cy="1.854" r="1.854" transform="translate(593.756 93.314)" fill="#c8c8c8"/>
    <path id="Path_455" data-name="Path 455" d="M514.627,68.832a1.854,1.854,0,1,0-1.855-1.855A1.856,1.856,0,0,0,514.627,68.832Z" transform="translate(88.885 37.442)" fill="#c8c8c8"/>
    <path id="Path_456" data-name="Path 456" d="M517.96,74.274a1.855,1.855,0,1,0-1.853-1.855A1.856,1.856,0,0,0,517.96,74.274Z" transform="translate(91.908 42.374)" fill="#c8c8c8"/>
    <circle id="Ellipse_128" data-name="Ellipse 128" cx="1.854" cy="1.854" r="1.854" transform="translate(612.67 124.179)" fill="#c8c8c8"/>
    <circle id="Ellipse_129" data-name="Ellipse 129" cx="1.854" cy="1.854" r="1.854" transform="translate(615.511 136.01)" fill="#c8c8c8"/>
    <path id="Path_457" data-name="Path 457" d="M527.324,92.26a1.532,1.532,0,1,0-1.533-1.533A1.531,1.531,0,0,0,527.324,92.26Z" transform="translate(100.687 59.265)" fill="#c8c8c8"/>
    <path id="Path_458" data-name="Path 458" d="M526.879,98.627a1.532,1.532,0,1,0-1.533-1.533A1.531,1.531,0,0,0,526.879,98.627Z" transform="translate(100.284 65.037)" fill="#c8c8c8"/>
    <circle id="Ellipse_130" data-name="Ellipse 130" cx="1.532" cy="1.532" r="1.532" transform="translate(623.1 172.503)" fill="#c8c8c8"/>
    <path id="Path_459" data-name="Path 459" d="M523.369,110.868a1.532,1.532,0,1,0-1.533-1.533A1.533,1.533,0,0,0,523.369,110.868Z" transform="translate(97.102 76.135)" fill="#c8c8c8"/>
    <path id="Path_460" data-name="Path 460" d="M520.371,116.5a1.531,1.531,0,1,0-1.531-1.531A1.531,1.531,0,0,0,520.371,116.5Z" transform="translate(94.386 81.244)" fill="#c8c8c8"/>
    <path id="Path_461" data-name="Path 461" d="M516.619,121.667a1.532,1.532,0,1,0-1.531-1.531A1.533,1.533,0,0,0,516.619,121.667Z" transform="translate(90.984 85.925)" fill="#c8c8c8"/>
    <path id="Path_462" data-name="Path 462" d="M512.187,126.257a1.531,1.531,0,1,0-1.533-1.531A1.531,1.531,0,0,0,512.187,126.257Z" transform="translate(86.965 90.088)" fill="#c8c8c8"/>
    <path id="Path_463" data-name="Path 463" d="M507.156,130.188a1.532,1.532,0,1,0-1.531-1.531A1.533,1.533,0,0,0,507.156,130.188Z" transform="translate(82.405 93.65)" fill="#c8c8c8"/>
    <path id="Path_464" data-name="Path 464" d="M501.63,133.379a1.532,1.532,0,1,0-1.533-1.531A1.531,1.531,0,0,0,501.63,133.379Z" transform="translate(77.394 96.542)" fill="#c8c8c8"/>
    <path id="Path_465" data-name="Path 465" d="M495.712,135.77a1.532,1.532,0,1,0-1.533-1.531A1.531,1.531,0,0,0,495.712,135.77Z" transform="translate(72.029 98.71)" fill="#c8c8c8"/>
    <path id="Path_466" data-name="Path 466" d="M489.519,137.315a1.532,1.532,0,1,0-1.533-1.533A1.533,1.533,0,0,0,489.519,137.315Z" transform="translate(66.415 100.111)" fill="#c8c8c8"/>
    <path id="Path_467" data-name="Path 467" d="M483.171,137.982a1.532,1.532,0,1,0-1.533-1.533A1.531,1.531,0,0,0,483.171,137.982Z" transform="translate(60.66 100.715)" fill="#c8c8c8"/>
    <circle id="Ellipse_131" data-name="Ellipse 131" cx="1.532" cy="1.532" r="1.532" transform="translate(530.136 235.208)" fill="#c8c8c8"/>
    <path id="Path_468" data-name="Path 468" d="M470.5,136.651a1.532,1.532,0,1,0-1.531-1.533A1.533,1.533,0,0,0,470.5,136.651Z" transform="translate(49.179 99.509)" fill="#c8c8c8"/>
    <circle id="Ellipse_132" data-name="Ellipse 132" cx="1.532" cy="1.532" r="1.532" transform="translate(506.579 229.335)" fill="#c8c8c8"/>
    <path id="Path_469" data-name="Path 469" d="M458.7,131.88a1.532,1.532,0,1,0-1.531-1.531A1.531,1.531,0,0,0,458.7,131.88Z" transform="translate(38.475 95.184)" fill="#c8c8c8"/>
    <path id="Path_470" data-name="Path 470" d="M453.408,128.311a1.532,1.532,0,1,0-1.533-1.531A1.531,1.531,0,0,0,453.408,128.311Z" transform="translate(33.677 91.948)" fill="#c8c8c8"/>
    <path id="Path_471" data-name="Path 471" d="M448.663,124.04a1.532,1.532,0,1,0-1.531-1.531A1.531,1.531,0,0,0,448.663,124.04Z" transform="translate(29.377 88.076)" fill="#c8c8c8"/>
    <circle id="Ellipse_133" data-name="Ellipse 133" cx="1.505" cy="1.505" r="1.505" transform="translate(468.714 199.757)" fill="#c8c8c8"/>
    <path id="Path_472" data-name="Path 472" d="M441.167,113.7a1.505,1.505,0,1,0-1.506-1.5A1.5,1.5,0,0,0,441.167,113.7Z" transform="translate(22.604 78.749)" fill="#c8c8c8"/>
    <path id="Path_473" data-name="Path 473" d="M438.569,107.867a1.505,1.505,0,1,0-1.5-1.5A1.505,1.505,0,0,0,438.569,107.867Z" transform="translate(20.251 73.463)" fill="#c8c8c8"/>
    <path id="Path_474" data-name="Path 474" d="M436.81,101.732a1.505,1.505,0,1,0-1.5-1.506A1.507,1.507,0,0,0,436.81,101.732Z" transform="translate(18.656 67.901)" fill="#c8c8c8"/>
    <path id="Path_475" data-name="Path 475" d="M435.923,95.411a1.505,1.505,0,1,0-1.506-1.5A1.5,1.5,0,0,0,435.923,95.411Z" transform="translate(17.85 62.171)" fill="#c8c8c8"/>
    <circle id="Ellipse_134" data-name="Ellipse 134" cx="1.505" cy="1.505" r="1.505" transform="translate(452.268 142.403)" fill="#c8c8c8"/>
    <path id="Path_476" data-name="Path 476" d="M436.81,82.708a1.505,1.505,0,1,0-1.5-1.506A1.507,1.507,0,0,0,436.81,82.708Z" transform="translate(18.656 50.655)" fill="#c8c8c8"/>
    <path id="Path_477" data-name="Path 477" d="M438.569,76.572a1.5,1.5,0,1,0-1.5-1.5A1.505,1.505,0,0,0,438.569,76.572Z" transform="translate(20.251 45.093)" fill="#c8c8c8"/>
    <circle id="Ellipse_135" data-name="Ellipse 135" cx="1.505" cy="1.505" r="1.505" transform="translate(462.266 107.538)" fill="#c8c8c8"/>
    <path id="Path_478" data-name="Path 478" d="M444.549,65.329a1.505,1.505,0,1,0-1.506-1.506A1.505,1.505,0,0,0,444.549,65.329Z" transform="translate(25.67 34.899)" fill="#c8c8c8"/>
    <path id="Path_479" data-name="Path 479" d="M448.65,60.439a1.505,1.505,0,1,0-1.5-1.5A1.5,1.5,0,0,0,448.65,60.439Z" transform="translate(29.39 30.466)" fill="#c8c8c8"/>
    <circle id="Ellipse_136" data-name="Ellipse 136" cx="1.505" cy="1.505" r="1.505" transform="translate(485.58 79.753)" fill="#c8c8c8"/>
    <path id="Path_480" data-name="Path 480" d="M458.685,52.6a1.505,1.505,0,1,0-1.5-1.5A1.505,1.505,0,0,0,458.685,52.6Z" transform="translate(38.488 23.359)" fill="#c8c8c8"/>
    <path id="Path_481" data-name="Path 481" d="M464.422,49.8a1.505,1.505,0,1,0-1.5-1.5A1.5,1.5,0,0,0,464.422,49.8Z" transform="translate(43.689 20.822)" fill="#c8c8c8"/>
    <circle id="Ellipse_137" data-name="Ellipse 137" cx="1.505" cy="1.505" r="1.505" transform="translate(518.179 63.854)" fill="#c8c8c8"/>
    <path id="Path_482" data-name="Path 482" d="M476.778,46.72a1.5,1.5,0,1,0-1.5-1.5A1.5,1.5,0,0,0,476.778,46.72Z" transform="translate(54.89 18.03)" fill="#c8c8c8"/>
    <circle id="Ellipse_138" data-name="Ellipse 138" cx="1.505" cy="1.505" r="1.505" transform="translate(542.325 61.316)" fill="#c8c8c8"/>
    <path id="Path_483" data-name="Path 483" d="M489.506,47.165a1.505,1.505,0,1,0-1.506-1.5A1.5,1.5,0,0,0,489.506,47.165Z" transform="translate(66.427 18.432)" fill="#c8c8c8"/>
    <path id="Path_484" data-name="Path 484" d="M495.7,48.709a1.505,1.505,0,1,0-1.506-1.5A1.5,1.5,0,0,0,495.7,48.709Z" transform="translate(72.042 19.832)" fill="#c8c8c8"/>
    <path id="Path_485" data-name="Path 485" d="M501.617,51.1a1.505,1.505,0,1,0-1.506-1.5A1.5,1.5,0,0,0,501.617,51.1Z" transform="translate(77.407 22)" fill="#c8c8c8"/>
    <path id="Path_486" data-name="Path 486" d="M507.143,54.291a1.5,1.5,0,1,0-1.5-1.5A1.505,1.505,0,0,0,507.143,54.291Z" transform="translate(82.418 24.894)" fill="#c8c8c8"/>
    <path id="Path_487" data-name="Path 487" d="M512.187,58.261a1.532,1.532,0,1,0-1.533-1.531A1.532,1.532,0,0,0,512.187,58.261Z" transform="translate(86.965 28.443)" fill="#c8c8c8"/>
    <path id="Path_488" data-name="Path 488" d="M516.619,62.852a1.532,1.532,0,1,0-1.531-1.531A1.531,1.531,0,0,0,516.619,62.852Z" transform="translate(90.984 32.605)" fill="#c8c8c8"/>
    <path id="Path_489" data-name="Path 489" d="M520.371,68.016a1.532,1.532,0,1,0-1.531-1.531A1.533,1.533,0,0,0,520.371,68.016Z" transform="translate(94.386 37.286)" fill="#c8c8c8"/>
    <path id="Path_490" data-name="Path 490" d="M523.369,73.652a1.532,1.532,0,1,0-1.533-1.533A1.533,1.533,0,0,0,523.369,73.652Z" transform="translate(97.102 42.396)" fill="#c8c8c8"/>
    <path id="Path_491" data-name="Path 491" d="M525.552,79.648a1.531,1.531,0,1,0-1.533-1.531A1.531,1.531,0,0,0,525.552,79.648Z" transform="translate(99.081 47.833)" fill="#c8c8c8"/>
    <path id="Path_492" data-name="Path 492" d="M526.879,85.893a1.532,1.532,0,1,0-1.533-1.533A1.531,1.531,0,0,0,526.879,85.893Z" transform="translate(100.284 53.493)" fill="#c8c8c8"/>
    <circle id="Ellipse_139" data-name="Ellipse 139" cx="1.209" cy="1.209" r="1.209" transform="translate(636.494 148.783)" fill="#c8c8c8"/>
    <path id="Path_493" data-name="Path 493" d="M531.852,98.155a1.21,1.21,0,1,0-1.209-1.211A1.21,1.21,0,0,0,531.852,98.155Z" transform="translate(105.086 65.194)" fill="#c8c8c8"/>
    <path id="Path_494" data-name="Path 494" d="M530.656,104.425a1.209,1.209,0,1,0-1.209-1.209A1.209,1.209,0,0,0,530.656,104.425Z" transform="translate(104.002 70.879)" fill="#c8c8c8"/>
    <path id="Path_495" data-name="Path 495" d="M528.685,110.5a1.21,1.21,0,1,0-1.211-1.211A1.21,1.21,0,0,0,528.685,110.5Z" transform="translate(102.213 76.383)" fill="#c8c8c8"/>
    <path id="Path_496" data-name="Path 496" d="M525.967,116.273a1.21,1.21,0,1,0-1.211-1.211A1.21,1.21,0,0,0,525.967,116.273Z" transform="translate(99.749 81.619)" fill="#c8c8c8"/>
    <circle id="Ellipse_140" data-name="Ellipse 140" cx="1.209" cy="1.209" r="1.209" transform="translate(617.984 205.75)" fill="#c8c8c8"/>
    <circle id="Ellipse_141" data-name="Ellipse 141" cx="1.209" cy="1.209" r="1.209" transform="translate(610.226 215.128)" fill="#c8c8c8"/>
    <circle id="Ellipse_142" data-name="Ellipse 142" cx="1.209" cy="1.209" r="1.209" transform="translate(601.354 223.459)" fill="#c8c8c8"/>
    <path id="Path_497" data-name="Path 497" d="M508.658,134.7a1.209,1.209,0,1,0-1.209-1.209A1.209,1.209,0,0,0,508.658,134.7Z" transform="translate(84.059 98.328)" fill="#c8c8c8"/>
    <path id="Path_498" data-name="Path 498" d="M503.064,137.779a1.21,1.21,0,1,0-1.209-1.211A1.21,1.21,0,0,0,503.064,137.779Z" transform="translate(78.988 101.116)" fill="#c8c8c8"/>
    <path id="Path_499" data-name="Path 499" d="M497.13,140.129a1.21,1.21,0,1,0-1.211-1.209A1.209,1.209,0,0,0,497.13,140.129Z" transform="translate(73.606 103.247)" fill="#c8c8c8"/>
    <path id="Path_500" data-name="Path 500" d="M490.945,141.716a1.209,1.209,0,1,0-1.209-1.209A1.21,1.21,0,0,0,490.945,141.716Z" transform="translate(68.001 104.686)" fill="#c8c8c8"/>
    <circle id="Ellipse_143" data-name="Ellipse 143" cx="1.209" cy="1.209" r="1.209" transform="translate(545.662 245.509)" fill="#c8c8c8"/>
    <circle id="Ellipse_144" data-name="Ellipse 144" cx="1.209" cy="1.209" r="1.209" transform="translate(533.491 245.509)" fill="#c8c8c8"/>
    <path id="Path_501" data-name="Path 501" d="M471.895,141.716a1.209,1.209,0,1,0-1.209-1.209A1.209,1.209,0,0,0,471.895,141.716Z" transform="translate(50.731 104.686)" fill="#c8c8c8"/>
    <circle id="Ellipse_145" data-name="Ellipse 145" cx="1.209" cy="1.209" r="1.209" transform="translate(509.628 240.957)" fill="#c8c8c8"/>
    <circle id="Ellipse_146" data-name="Ellipse 146" cx="1.209" cy="1.209" r="1.209" transform="translate(498.311 236.477)" fill="#c8c8c8"/>
    <path id="Path_502" data-name="Path 502" d="M454.182,134.7a1.209,1.209,0,1,0-1.209-1.209A1.21,1.21,0,0,0,454.182,134.7Z" transform="translate(34.673 98.328)" fill="#c8c8c8"/>
    <circle id="Ellipse_147" data-name="Ellipse 147" cx="1.209" cy="1.209" r="1.209" transform="translate(477.799 223.459)" fill="#c8c8c8"/>
    <circle id="Ellipse_148" data-name="Ellipse 148" cx="1.209" cy="1.209" r="1.209" transform="translate(468.927 215.128)" fill="#c8c8c8"/>
    <circle id="Ellipse_149" data-name="Ellipse 149" cx="1.182" cy="1.182" r="1.182" transform="translate(461.196 205.777)" fill="#c8c8c8"/>
    <circle id="Ellipse_150" data-name="Ellipse 150" cx="1.182" cy="1.182" r="1.182" transform="translate(454.675 195.501)" fill="#c8c8c8"/>
    <path id="Path_503" data-name="Path 503" d="M434.144,110.456a1.182,1.182,0,1,0-1.182-1.182A1.182,1.182,0,0,0,434.144,110.456Z" transform="translate(16.531 76.396)" fill="#c8c8c8"/>
    <circle id="Ellipse_151" data-name="Ellipse 151" cx="1.182" cy="1.182" r="1.182" transform="translate(445.731 172.913)" fill="#c8c8c8"/>
    <circle id="Ellipse_152" data-name="Ellipse 152" cx="1.182" cy="1.182" r="1.182" transform="translate(443.451 160.957)" fill="#c8c8c8"/>
    <path id="Path_504" data-name="Path 504" d="M430.574,91.745a1.183,1.183,0,1,0-1.182-1.184A1.182,1.182,0,0,0,430.574,91.745Z" transform="translate(13.295 59.431)" fill="#c8c8c8"/>
    <path id="Path_505" data-name="Path 505" d="M430.975,85.372a1.182,1.182,0,1,0-1.182-1.182A1.182,1.182,0,0,0,430.975,85.372Z" transform="translate(13.658 53.655)" fill="#c8c8c8"/>
    <path id="Path_506" data-name="Path 506" d="M432.171,79.1a1.183,1.183,0,1,0-1.182-1.182A1.182,1.182,0,0,0,432.171,79.1Z" transform="translate(14.743 47.97)" fill="#c8c8c8"/>
    <path id="Path_507" data-name="Path 507" d="M434.144,73.032a1.183,1.183,0,1,0-1.182-1.184A1.183,1.183,0,0,0,434.144,73.032Z" transform="translate(16.531 42.466)" fill="#c8c8c8"/>
    <circle id="Ellipse_153" data-name="Ellipse 153" cx="1.182" cy="1.182" r="1.182" transform="translate(454.675 102.12)" fill="#c8c8c8"/>
    <circle id="Ellipse_154" data-name="Ellipse 154" cx="1.182" cy="1.182" r="1.182" transform="translate(461.196 91.844)" fill="#c8c8c8"/>
    <circle id="Ellipse_155" data-name="Ellipse 155" cx="1.182" cy="1.182" r="1.182" transform="translate(468.954 82.466)" fill="#c8c8c8"/>
    <path id="Path_508" data-name="Path 508" d="M449.005,52.577a1.183,1.183,0,1,0-1.182-1.182A1.183,1.183,0,0,0,449.005,52.577Z" transform="translate(30.004 23.923)" fill="#c8c8c8"/>
    <circle id="Ellipse_156" data-name="Ellipse 156" cx="1.182" cy="1.182" r="1.182" transform="translate(487.673 66.981)" fill="#c8c8c8"/>
    <path id="Path_509" data-name="Path 509" d="M459.763,45.748a1.182,1.182,0,1,0-1.182-1.182A1.182,1.182,0,0,0,459.763,45.748Z" transform="translate(39.757 17.733)" fill="#c8c8c8"/>
    <circle id="Ellipse_157" data-name="Ellipse 157" cx="1.182" cy="1.182" r="1.182" transform="translate(509.655 56.637)" fill="#c8c8c8"/>
    <circle id="Ellipse_158" data-name="Ellipse 158" cx="1.182" cy="1.182" r="1.182" transform="translate(521.443 53.61)" fill="#c8c8c8"/>
    <path id="Path_510" data-name="Path 510" d="M478.215,41.012a1.183,1.183,0,1,0-1.182-1.184A1.182,1.182,0,0,0,478.215,41.012Z" transform="translate(56.485 13.438)" fill="#c8c8c8"/>
    <path id="Path_511" data-name="Path 511" d="M484.6,41.012a1.183,1.183,0,1,0-1.182-1.184A1.182,1.182,0,0,0,484.6,41.012Z" transform="translate(62.272 13.438)" fill="#c8c8c8"/>
    <path id="Path_512" data-name="Path 512" d="M490.932,41.812a1.183,1.183,0,1,0-1.182-1.182A1.184,1.184,0,0,0,490.932,41.812Z" transform="translate(68.014 14.163)" fill="#c8c8c8"/>
    <path id="Path_513" data-name="Path 513" d="M497.117,43.4a1.182,1.182,0,1,0-1.184-1.182A1.182,1.182,0,0,0,497.117,43.4Z" transform="translate(73.619 15.603)" fill="#c8c8c8"/>
    <path id="Path_514" data-name="Path 514" d="M503.051,45.748a1.182,1.182,0,1,0-1.182-1.182A1.182,1.182,0,0,0,503.051,45.748Z" transform="translate(79 17.733)" fill="#c8c8c8"/>
    <circle id="Ellipse_159" data-name="Ellipse 159" cx="1.182" cy="1.182" r="1.182" transform="translate(591.534 66.981)" fill="#c8c8c8"/>
    <path id="Path_515" data-name="Path 515" d="M513.809,52.577a1.183,1.183,0,1,0-1.182-1.182A1.183,1.183,0,0,0,513.809,52.577Z" transform="translate(88.753 23.923)" fill="#c8c8c8"/>
    <circle id="Ellipse_160" data-name="Ellipse 160" cx="1.209" cy="1.209" r="1.209" transform="translate(610.226 82.439)" fill="#c8c8c8"/>
    <circle id="Ellipse_161" data-name="Ellipse 161" cx="1.209" cy="1.209" r="1.209" transform="translate(617.984 91.817)" fill="#c8c8c8"/>
    <path id="Path_516" data-name="Path 516" d="M525.967,67.3a1.21,1.21,0,1,0-1.211-1.211A1.21,1.21,0,0,0,525.967,67.3Z" transform="translate(99.749 37.217)" fill="#c8c8c8"/>
    <circle id="Ellipse_162" data-name="Ellipse 162" cx="1.209" cy="1.209" r="1.209" transform="translate(629.688 113.106)" fill="#c8c8c8"/>
    <path id="Path_517" data-name="Path 517" d="M530.656,79.142a1.21,1.21,0,1,0-1.209-1.209A1.209,1.209,0,0,0,530.656,79.142Z" transform="translate(104.002 47.958)" fill="#c8c8c8"/>
    <path id="Path_518" data-name="Path 518" d="M531.852,85.413a1.21,1.21,0,1,0-1.209-1.211A1.21,1.21,0,0,0,531.852,85.413Z" transform="translate(105.086 53.643)" fill="#c8c8c8"/>
    <path id="Path_519" data-name="Path 519" d="M537.184,91.307a.887.887,0,1,0-.888-.887A.886.886,0,0,0,537.184,91.307Z" transform="translate(110.211 59.572)" fill="#c8c8c8"/>
    <path id="Path_520" data-name="Path 520" d="M536.818,97.681a.887.887,0,1,0-.886-.887A.886.886,0,0,0,536.818,97.681Z" transform="translate(109.881 65.35)" fill="#c8c8c8"/>
    <path id="Path_521" data-name="Path 521" d="M535.729,103.972a.887.887,0,1,0-.886-.887A.888.888,0,0,0,535.729,103.972Z" transform="translate(108.894 71.053)" fill="#c8c8c8"/>
    <path id="Path_522" data-name="Path 522" d="M533.932,110.1a.887.887,0,1,0-.887-.887A.886.886,0,0,0,533.932,110.1Z" transform="translate(107.264 76.607)" fill="#c8c8c8"/>
    <path id="Path_523" data-name="Path 523" d="M531.445,115.979a.887.887,0,1,0-.886-.887A.888.888,0,0,0,531.445,115.979Z" transform="translate(105.01 81.939)" fill="#c8c8c8"/>
    <path id="Path_524" data-name="Path 524" d="M528.307,121.538a.887.887,0,1,0-.887-.887A.886.886,0,0,0,528.307,121.538Z" transform="translate(102.164 86.978)" fill="#c8c8c8"/>
    <path id="Path_525" data-name="Path 525" d="M524.554,126.7a.887.887,0,1,0-.887-.887A.888.888,0,0,0,524.554,126.7Z" transform="translate(98.762 91.661)" fill="#c8c8c8"/>
    <path id="Path_526" data-name="Path 526" d="M520.237,131.407a.887.887,0,1,0-.887-.887A.888.888,0,0,0,520.237,131.407Z" transform="translate(94.848 95.925)" fill="#c8c8c8"/>
    <path id="Path_527" data-name="Path 527" d="M515.411,135.589a.888.888,0,1,0-.886-.887A.888.888,0,0,0,515.411,135.589Z" transform="translate(90.474 99.715)" fill="#c8c8c8"/>
    <path id="Path_528" data-name="Path 528" d="M510.142,139.191a.887.887,0,1,0-.887-.887A.886.886,0,0,0,510.142,139.191Z" transform="translate(85.696 102.982)" fill="#c8c8c8"/>
    <circle id="Ellipse_163" data-name="Ellipse 163" cx="0.887" cy="0.887" r="0.887" transform="translate(584.186 246.081)" fill="#c8c8c8"/>
    <circle id="Ellipse_164" data-name="Ellipse 164" cx="0.887" cy="0.887" r="0.887" transform="translate(572.843 250.497)" fill="#c8c8c8"/>
    <path id="Path_529" data-name="Path 529" d="M492.372,146.11a.887.887,0,1,0-.887-.887A.886.886,0,0,0,492.372,146.11Z" transform="translate(69.587 109.254)" fill="#c8c8c8"/>
    <path id="Path_530" data-name="Path 530" d="M486.052,147.019a.887.887,0,1,0-.887-.887A.887.887,0,0,0,486.052,147.019Z" transform="translate(63.857 110.078)" fill="#c8c8c8"/>
    <path id="Path_531" data-name="Path 531" d="M479.669,147.2a.887.887,0,1,0-.887-.887A.888.888,0,0,0,479.669,147.2Z" transform="translate(58.071 110.243)" fill="#c8c8c8"/>
    <path id="Path_532" data-name="Path 532" d="M473.309,146.656a.888.888,0,1,0-.887-.887A.888.888,0,0,0,473.309,146.656Z" transform="translate(52.305 109.748)" fill="#c8c8c8"/>
    <path id="Path_533" data-name="Path 533" d="M467.052,145.387a.887.887,0,1,0-.887-.887A.886.886,0,0,0,467.052,145.387Z" transform="translate(46.632 108.599)" fill="#c8c8c8"/>
    <path id="Path_534" data-name="Path 534" d="M460.98,143.414a.887.887,0,1,0-.887-.887A.886.886,0,0,0,460.98,143.414Z" transform="translate(41.127 106.81)" fill="#c8c8c8"/>
    <path id="Path_535" data-name="Path 535" d="M455.173,140.762a.887.887,0,1,0-.887-.887A.886.886,0,0,0,455.173,140.762Z" transform="translate(35.863 104.406)" fill="#c8c8c8"/>
    <path id="Path_536" data-name="Path 536" d="M449.693,137.426a.86.86,0,1,0-.86-.86A.86.86,0,0,0,449.693,137.426Z" transform="translate(30.92 101.43)" fill="#c8c8c8"/>
    <path id="Path_537" data-name="Path 537" d="M444.637,133.527a.86.86,0,1,0-.86-.86A.86.86,0,0,0,444.637,133.527Z" transform="translate(26.336 97.895)" fill="#c8c8c8"/>
    <path id="Path_538" data-name="Path 538" d="M440.07,129.118a.888.888,0,1,0-.887-.887A.887.887,0,0,0,440.07,129.118Z" transform="translate(22.172 93.848)" fill="#c8c8c8"/>
    <path id="Path_539" data-name="Path 539" d="M436.017,124.135a.86.86,0,1,0-.86-.86A.86.86,0,0,0,436.017,124.135Z" transform="translate(18.521 89.381)" fill="#c8c8c8"/>
    <path id="Path_540" data-name="Path 540" d="M432.565,118.764a.86.86,0,1,0-.86-.86A.86.86,0,0,0,432.565,118.764Z" transform="translate(15.392 84.511)" fill="#c8c8c8"/>
    <path id="Path_541" data-name="Path 541" d="M429.748,113.035a.86.86,0,1,0-.86-.86A.86.86,0,0,0,429.748,113.035Z" transform="translate(12.838 79.318)" fill="#c8c8c8"/>
    <path id="Path_542" data-name="Path 542" d="M427.6,107.022a.86.86,0,1,0-.86-.86A.86.86,0,0,0,427.6,107.022Z" transform="translate(10.893 73.866)" fill="#c8c8c8"/>
    <path id="Path_543" data-name="Path 543" d="M426.157,100.8a.86.86,0,1,0-.86-.86A.86.86,0,0,0,426.157,100.8Z" transform="translate(9.582 68.228)" fill="#c8c8c8"/>
    <path id="Path_544" data-name="Path 544" d="M425.429,94.462a.861.861,0,1,0-.86-.862A.86.86,0,0,0,425.429,94.462Z" transform="translate(8.923 62.478)" fill="#c8c8c8"/>
    <path id="Path_545" data-name="Path 545" d="M425.429,88.076a.86.86,0,1,0-.86-.86A.86.86,0,0,0,425.429,88.076Z" transform="translate(8.923 56.691)" fill="#c8c8c8"/>
    <path id="Path_546" data-name="Path 546" d="M426.157,81.733a.86.86,0,1,0-.86-.86A.86.86,0,0,0,426.157,81.733Z" transform="translate(9.582 50.94)" fill="#c8c8c8"/>
    <path id="Path_547" data-name="Path 547" d="M427.6,75.515a.86.86,0,1,0-.86-.86A.86.86,0,0,0,427.6,75.515Z" transform="translate(10.893 45.303)" fill="#c8c8c8"/>
    <path id="Path_548" data-name="Path 548" d="M429.748,69.5a.86.86,0,1,0-.86-.86A.86.86,0,0,0,429.748,69.5Z" transform="translate(12.838 39.852)" fill="#c8c8c8"/>
    <path id="Path_549" data-name="Path 549" d="M432.565,63.772a.86.86,0,1,0-.86-.86A.86.86,0,0,0,432.565,63.772Z" transform="translate(15.392 34.657)" fill="#c8c8c8"/>
    <path id="Path_550" data-name="Path 550" d="M436.017,58.4a.861.861,0,1,0-.86-.862A.86.86,0,0,0,436.017,58.4Z" transform="translate(18.521 29.788)" fill="#c8c8c8"/>
    <path id="Path_551" data-name="Path 551" d="M440.058,53.459a.86.86,0,1,0-.86-.86A.86.86,0,0,0,440.058,53.459Z" transform="translate(22.185 25.308)" fill="#c8c8c8"/>
    <path id="Path_552" data-name="Path 552" d="M444.637,49.011a.861.861,0,1,0-.86-.862A.86.86,0,0,0,444.637,49.011Z" transform="translate(26.336 21.274)" fill="#c8c8c8"/>
    <path id="Path_553" data-name="Path 553" d="M449.693,45.111a.86.86,0,1,0-.86-.86A.86.86,0,0,0,449.693,45.111Z" transform="translate(30.92 17.74)" fill="#c8c8c8"/>
    <circle id="Ellipse_165" data-name="Ellipse 165" cx="0.86" cy="0.86" r="0.86" transform="translate(490.175 54.845)" fill="#c8c8c8"/>
    <path id="Path_554" data-name="Path 554" d="M460.967,39.162a.86.86,0,1,0-.86-.86A.86.86,0,0,0,460.967,39.162Z" transform="translate(41.14 12.347)" fill="#c8c8c8"/>
    <path id="Path_555" data-name="Path 555" d="M467.039,37.189a.86.86,0,1,0-.86-.86A.86.86,0,0,0,467.039,37.189Z" transform="translate(46.645 10.558)" fill="#c8c8c8"/>
    <path id="Path_556" data-name="Path 556" d="M473.3,35.921a.86.86,0,1,0-.86-.86A.859.859,0,0,0,473.3,35.921Z" transform="translate(52.317 9.408)" fill="#c8c8c8"/>
    <path id="Path_557" data-name="Path 557" d="M479.657,35.375a.86.86,0,1,0-.86-.86A.86.86,0,0,0,479.657,35.375Z" transform="translate(58.084 8.913)" fill="#c8c8c8"/>
    <path id="Path_558" data-name="Path 558" d="M486.039,35.557a.86.86,0,1,0-.86-.86A.86.86,0,0,0,486.039,35.557Z" transform="translate(63.87 9.078)" fill="#c8c8c8"/>
    <path id="Path_559" data-name="Path 559" d="M492.359,36.466a.86.86,0,1,0-.86-.86A.86.86,0,0,0,492.359,36.466Z" transform="translate(69.599 9.902)" fill="#c8c8c8"/>
    <path id="Path_560" data-name="Path 560" d="M498.533,38.089a.86.86,0,1,0-.86-.86A.86.86,0,0,0,498.533,38.089Z" transform="translate(75.196 11.374)" fill="#c8c8c8"/>
    <path id="Path_561" data-name="Path 561" d="M504.483,40.4a.86.86,0,1,0-.86-.86A.86.86,0,0,0,504.483,40.4Z" transform="translate(80.591 13.473)" fill="#c8c8c8"/>
    <path id="Path_562" data-name="Path 562" d="M510.129,43.384a.86.86,0,1,0-.86-.86A.86.86,0,0,0,510.129,43.384Z" transform="translate(85.709 16.174)" fill="#c8c8c8"/>
    <circle id="Ellipse_166" data-name="Ellipse 166" cx="0.86" cy="0.86" r="0.86" transform="translate(605.026 64.709)" fill="#c8c8c8"/>
    <path id="Path_563" data-name="Path 563" d="M520.224,51.169a.86.86,0,1,0-.86-.86A.859.859,0,0,0,520.224,51.169Z" transform="translate(94.861 23.232)" fill="#c8c8c8"/>
    <path id="Path_564" data-name="Path 564" d="M524.541,55.874a.861.861,0,1,0-.86-.86A.862.862,0,0,0,524.541,55.874Z" transform="translate(98.775 27.495)" fill="#c8c8c8"/>
    <path id="Path_565" data-name="Path 565" d="M528.294,61.038a.86.86,0,1,0-.86-.86A.86.86,0,0,0,528.294,61.038Z" transform="translate(102.177 32.179)" fill="#c8c8c8"/>
    <path id="Path_566" data-name="Path 566" d="M531.445,66.636a.887.887,0,1,0-.886-.887A.888.888,0,0,0,531.445,66.636Z" transform="translate(105.01 37.206)" fill="#c8c8c8"/>
    <path id="Path_567" data-name="Path 567" d="M533.932,72.518a.888.888,0,1,0-.887-.887A.886.886,0,0,0,533.932,72.518Z" transform="translate(107.264 42.536)" fill="#c8c8c8"/>
    <path id="Path_568" data-name="Path 568" d="M535.729,78.644a.888.888,0,1,0-.886-.888A.889.889,0,0,0,535.729,78.644Z" transform="translate(108.894 48.09)" fill="#c8c8c8"/>
    <path id="Path_569" data-name="Path 569" d="M536.818,84.933a.887.887,0,1,0-.886-.887A.886.886,0,0,0,536.818,84.933Z" transform="translate(109.881 53.793)" fill="#c8c8c8"/>
    <circle id="Ellipse_167" data-name="Ellipse 167" cx="0.564" cy="0.564" r="0.564" transform="translate(656.522 149.428)" fill="#c8c8c8"/>
    <path id="Path_570" data-name="Path 570" d="M541.779,97.21a.565.565,0,1,0-.564-.566A.566.566,0,0,0,541.779,97.21Z" transform="translate(114.67 65.505)" fill="#c8c8c8"/>
    <circle id="Ellipse_168" data-name="Ellipse 168" cx="0.564" cy="0.564" r="0.564" transform="translate(653.98 173.609)" fill="#c8c8c8"/>
    <path id="Path_571" data-name="Path 571" d="M539.127,109.682a.564.564,0,1,0-.564-.564A.563.563,0,0,0,539.127,109.682Z" transform="translate(112.266 76.814)" fill="#c8c8c8"/>
    <path id="Path_572" data-name="Path 572" d="M536.839,115.643a.564.564,0,1,0-.564-.564A.563.563,0,0,0,536.839,115.643Z" transform="translate(110.192 82.218)" fill="#c8c8c8"/>
    <circle id="Ellipse_169" data-name="Ellipse 169" cx="0.564" cy="0.564" r="0.564" transform="translate(640.941 207.579)" fill="#c8c8c8"/>
    <circle id="Ellipse_170" data-name="Ellipse 170" cx="0.564" cy="0.564" r="0.564" transform="translate(634.31 217.788)" fill="#c8c8c8"/>
    <circle id="Ellipse_171" data-name="Ellipse 171" cx="0.564" cy="0.564" r="0.564" transform="translate(626.65 227.249)" fill="#c8c8c8"/>
    <path id="Path_573" data-name="Path 573" d="M521.93,136.164a.564.564,0,1,0-.564-.564A.565.565,0,0,0,521.93,136.164Z" transform="translate(96.676 100.822)" fill="#c8c8c8"/>
    <path id="Path_574" data-name="Path 574" d="M516.968,140.182a.564.564,0,1,0-.564-.564A.564.564,0,0,0,516.968,140.182Z" transform="translate(92.177 104.464)" fill="#c8c8c8"/>
    <path id="Path_575" data-name="Path 575" d="M511.613,143.66a.564.564,0,1,0-.564-.564A.566.566,0,0,0,511.613,143.66Z" transform="translate(87.323 107.617)" fill="#c8c8c8"/>
    <path id="Path_576" data-name="Path 576" d="M505.924,146.558a.564.564,0,1,0-.564-.564A.563.563,0,0,0,505.924,146.558Z" transform="translate(82.165 110.244)" fill="#c8c8c8"/>
    <circle id="Ellipse_172" data-name="Ellipse 172" cx="0.564" cy="0.564" r="0.564" transform="translate(576.16 260.037)" fill="#c8c8c8"/>
    <circle id="Ellipse_173" data-name="Ellipse 173" cx="0.564" cy="0.564" r="0.564" transform="translate(564.402 263.187)" fill="#c8c8c8"/>
    <circle id="Ellipse_174" data-name="Ellipse 174" cx="0.564" cy="0.564" r="0.564" transform="translate(552.378 265.092)" fill="#c8c8c8"/>
    <circle id="Ellipse_175" data-name="Ellipse 175" cx="0.564" cy="0.564" r="0.564" transform="translate(540.222 265.729)" fill="#c8c8c8"/>
    <path id="Path_577" data-name="Path 577" d="M474.737,151.5a.564.564,0,1,0-.564-.564A.566.566,0,0,0,474.737,151.5Z" transform="translate(53.892 114.723)" fill="#c8c8c8"/>
    <circle id="Ellipse_176" data-name="Ellipse 176" cx="0.564" cy="0.564" r="0.564" transform="translate(516.041 263.187)" fill="#c8c8c8"/>
    <circle id="Ellipse_177" data-name="Ellipse 177" cx="0.564" cy="0.564" r="0.564" transform="translate(504.283 260.037)" fill="#c8c8c8"/>
    <path id="Path_578" data-name="Path 578" d="M456.29,146.518a.538.538,0,1,0-.538-.538A.537.537,0,0,0,456.29,146.518Z" transform="translate(37.192 110.257)" fill="#c8c8c8"/>
    <path id="Path_579" data-name="Path 579" d="M450.6,143.62a.538.538,0,1,0-.538-.538A.538.538,0,0,0,450.6,143.62Z" transform="translate(32.035 107.63)" fill="#c8c8c8"/>
    <path id="Path_580" data-name="Path 580" d="M445.245,140.142a.538.538,0,1,0-.536-.538A.537.537,0,0,0,445.245,140.142Z" transform="translate(27.181 104.477)" fill="#c8c8c8"/>
    <circle id="Ellipse_178" data-name="Ellipse 178" cx="0.537" cy="0.537" r="0.537" transform="translate(462.428 235.883)" fill="#c8c8c8"/>
    <path id="Path_581" data-name="Path 581" d="M435.77,131.609a.538.538,0,1,0-.538-.538A.538.538,0,0,0,435.77,131.609Z" transform="translate(18.589 96.741)" fill="#c8c8c8"/>
    <path id="Path_582" data-name="Path 582" d="M431.751,126.647a.538.538,0,1,0-.538-.538A.537.537,0,0,0,431.751,126.647Z" transform="translate(14.946 92.243)" fill="#c8c8c8"/>
    <path id="Path_583" data-name="Path 583" d="M428.274,121.292a.538.538,0,1,0-.538-.538A.537.537,0,0,0,428.274,121.292Z" transform="translate(11.794 87.388)" fill="#c8c8c8"/>
    <path id="Path_584" data-name="Path 584" d="M425.375,115.6a.538.538,0,1,0-.538-.538A.537.537,0,0,0,425.375,115.6Z" transform="translate(9.165 82.23)" fill="#c8c8c8"/>
    <circle id="Ellipse_179" data-name="Ellipse 179" cx="0.537" cy="0.537" r="0.537" transform="translate(429.64 185.394)" fill="#c8c8c8"/>
    <circle id="Ellipse_180" data-name="Ellipse 180" cx="0.537" cy="0.537" r="0.537" transform="translate(426.49 173.636)" fill="#c8c8c8"/>
    <path id="Path_585" data-name="Path 585" d="M420.436,97.169a.538.538,0,1,0-.538-.54A.54.54,0,0,0,420.436,97.169Z" transform="translate(4.688 65.519)" fill="#c8c8c8"/>
    <path id="Path_586" data-name="Path 586" d="M420.087,90.753a.511.511,0,1,0-.509-.511A.511.511,0,0,0,420.087,90.753Z" transform="translate(4.398 59.75)" fill="#c8c8c8"/>
    <circle id="Ellipse_181" data-name="Ellipse 181" cx="0.537" cy="0.537" r="0.537" transform="translate(424.585 137.299)" fill="#c8c8c8"/>
    <circle id="Ellipse_182" data-name="Ellipse 182" cx="0.537" cy="0.537" r="0.537" transform="translate(426.49 125.275)" fill="#c8c8c8"/>
    <circle id="Ellipse_183" data-name="Ellipse 183" cx="0.537" cy="0.537" r="0.537" transform="translate(429.64 113.517)" fill="#c8c8c8"/>
    <path id="Path_587" data-name="Path 587" d="M425.362,65.941a.51.51,0,1,0-.511-.511A.511.511,0,0,0,425.362,65.941Z" transform="translate(9.178 37.258)" fill="#c8c8c8"/>
    <path id="Path_588" data-name="Path 588" d="M428.261,60.252a.51.51,0,1,0-.511-.511A.511.511,0,0,0,428.261,60.252Z" transform="translate(11.806 32.101)" fill="#c8c8c8"/>
    <path id="Path_589" data-name="Path 589" d="M431.751,54.936a.537.537,0,1,0-.538-.536A.537.537,0,0,0,431.751,54.936Z" transform="translate(14.946 27.233)" fill="#c8c8c8"/>
    <path id="Path_590" data-name="Path 590" d="M435.757,49.935a.51.51,0,1,0-.511-.509A.509.509,0,0,0,435.757,49.935Z" transform="translate(18.602 22.748)" fill="#c8c8c8"/>
    <circle id="Ellipse_184" data-name="Ellipse 184" cx="0.511" cy="0.511" r="0.511" transform="translate(462.455 63.054)" fill="#c8c8c8"/>
    <circle id="Ellipse_185" data-name="Ellipse 185" cx="0.537" cy="0.537" r="0.537" transform="translate(471.889 55.366)" fill="#c8c8c8"/>
    <circle id="Ellipse_186" data-name="Ellipse 186" cx="0.511" cy="0.511" r="0.511" transform="translate(482.125 48.763)" fill="#c8c8c8"/>
    <path id="Path_591" data-name="Path 591" d="M456.277,35.026a.51.51,0,1,0-.511-.511A.511.511,0,0,0,456.277,35.026Z" transform="translate(37.205 9.232)" fill="#c8c8c8"/>
    <path id="Path_592" data-name="Path 592" d="M462.251,32.778a.538.538,0,1,0-.538-.538A.537.537,0,0,0,462.251,32.778Z" transform="translate(42.596 7.144)" fill="#c8c8c8"/>
    <circle id="Ellipse_187" data-name="Ellipse 187" cx="0.537" cy="0.537" r="0.537" transform="translate(516.068 35.697)" fill="#c8c8c8"/>
    <path id="Path_593" data-name="Path 593" d="M474.725,30.127a.538.538,0,1,0-.538-.538A.538.538,0,0,0,474.725,30.127Z" transform="translate(53.905 4.74)" fill="#c8c8c8"/>
    <path id="Path_594" data-name="Path 594" d="M481.088,29.752a.51.51,0,1,0-.511-.509A.509.509,0,0,0,481.088,29.752Z" transform="translate(59.698 4.45)" fill="#c8c8c8"/>
    <circle id="Ellipse_188" data-name="Ellipse 188" cx="0.537" cy="0.537" r="0.537" transform="translate(552.405 33.792)" fill="#c8c8c8"/>
    <circle id="Ellipse_189" data-name="Ellipse 189" cx="0.537" cy="0.537" r="0.537" transform="translate(564.429 35.697)" fill="#c8c8c8"/>
    <path id="Path_595" data-name="Path 595" d="M499.951,32.778a.538.538,0,1,0-.538-.538A.537.537,0,0,0,499.951,32.778Z" transform="translate(76.774 7.144)" fill="#c8c8c8"/>
    <circle id="Ellipse_190" data-name="Ellipse 190" cx="0.537" cy="0.537" r="0.537" transform="translate(587.552 43.21)" fill="#c8c8c8"/>
    <circle id="Ellipse_191" data-name="Ellipse 191" cx="0.537" cy="0.537" r="0.537" transform="translate(598.399 48.736)" fill="#c8c8c8"/>
    <circle id="Ellipse_192" data-name="Ellipse 192" cx="0.537" cy="0.537" r="0.537" transform="translate(608.608 55.366)" fill="#c8c8c8"/>
    <path id="Path_596" data-name="Path 596" d="M521.918,45.461a.538.538,0,1,0-.538-.538A.538.538,0,0,0,521.918,45.461Z" transform="translate(96.688 18.642)" fill="#c8c8c8"/>
    <path id="Path_597" data-name="Path 597" d="M526.433,49.974a.537.537,0,1,0-.538-.536A.537.537,0,0,0,526.433,49.974Z" transform="translate(100.782 22.735)" fill="#c8c8c8"/>
    <circle id="Ellipse_193" data-name="Ellipse 193" cx="0.537" cy="0.537" r="0.537" transform="translate(634.337 81.096)" fill="#c8c8c8"/>
    <circle id="Ellipse_194" data-name="Ellipse 194" cx="0.537" cy="0.537" r="0.537" transform="translate(640.968 91.305)" fill="#c8c8c8"/>
    <circle id="Ellipse_195" data-name="Ellipse 195" cx="0.537" cy="0.537" r="0.537" transform="translate(646.494 102.152)" fill="#c8c8c8"/>
    <path id="Path_598" data-name="Path 598" d="M539.127,71.982a.564.564,0,1,0-.564-.564A.563.563,0,0,0,539.127,71.982Z" transform="translate(112.266 42.636)" fill="#c8c8c8"/>
    <circle id="Ellipse_196" data-name="Ellipse 196" cx="0.564" cy="0.564" r="0.564" transform="translate(653.98 125.248)" fill="#c8c8c8"/>
    <circle id="Ellipse_197" data-name="Ellipse 197" cx="0.564" cy="0.564" r="0.564" transform="translate(655.885 137.272)" fill="#c8c8c8"/>
    <path id="Path_599" data-name="Path 599" d="M547.043,90.356a.242.242,0,1,0-.242-.242A.242.242,0,0,0,547.043,90.356Z" transform="translate(119.734 59.878)" fill="#c8c8c8"/>
    <path id="Path_600" data-name="Path 600" d="M546.735,96.734a.242.242,0,1,0-.242-.242A.242.242,0,0,0,546.735,96.734Z" transform="translate(119.455 65.66)" fill="#c8c8c8"/>
    <path id="Path_601" data-name="Path 601" d="M545.812,103.051a.241.241,0,1,0-.242-.24A.241.241,0,0,0,545.812,103.051Z" transform="translate(118.618 71.389)" fill="#c8c8c8"/>
    <path id="Path_602" data-name="Path 602" d="M544.284,109.251a.241.241,0,1,0-.242-.242A.241.241,0,0,0,544.284,109.251Z" transform="translate(117.233 77.01)" fill="#c8c8c8"/>
    <circle id="Ellipse_198" data-name="Ellipse 198" cx="0.242" cy="0.242" r="0.242" transform="translate(657.235 197.262)" fill="#c8c8c8"/>
    <path id="Path_603" data-name="Path 603" d="M539.474,121.067a.242.242,0,1,0-.242-.242A.242.242,0,0,0,539.474,121.067Z" transform="translate(112.873 87.72)" fill="#c8c8c8"/>
    <path id="Path_604" data-name="Path 604" d="M536.237,126.569a.241.241,0,0,0,0-.482.241.241,0,1,0,0,.482Z" transform="translate(109.938 92.71)" fill="#c8c8c8"/>
    <path id="Path_605" data-name="Path 605" d="M532.482,131.735a.241.241,0,1,0-.24-.24A.24.24,0,0,0,532.482,131.735Z" transform="translate(106.536 97.393)" fill="#c8c8c8"/>
    <path id="Path_606" data-name="Path 606" d="M528.236,136.477a.215.215,0,1,0-.215-.215A.217.217,0,0,0,528.236,136.477Z" transform="translate(102.709 101.738)" fill="#c8c8c8"/>
    <path id="Path_607" data-name="Path 607" d="M523.573,140.863a.241.241,0,1,0-.242-.24A.241.241,0,0,0,523.573,140.863Z" transform="translate(98.457 105.668)" fill="#c8c8c8"/>
    <path id="Path_608" data-name="Path 608" d="M518.5,144.74a.241.241,0,1,0-.242-.24A.241.241,0,0,0,518.5,144.74Z" transform="translate(93.858 109.183)" fill="#c8c8c8"/>
    <path id="Path_609" data-name="Path 609" d="M513.074,148.111a.242.242,0,1,0-.24-.242A.241.241,0,0,0,513.074,148.111Z" transform="translate(88.941 112.237)" fill="#c8c8c8"/>
    <path id="Path_610" data-name="Path 610" d="M507.35,150.941a.242.242,0,1,0-.24-.242A.241.241,0,0,0,507.35,150.941Z" transform="translate(83.752 114.803)" fill="#c8c8c8"/>
    <path id="Path_611" data-name="Path 611" d="M501.381,153.205a.242.242,0,1,0-.242-.242A.243.243,0,0,0,501.381,153.205Z" transform="translate(78.339 116.855)" fill="#c8c8c8"/>
    <path id="Path_612" data-name="Path 612" d="M495.22,154.881a.241.241,0,1,0-.242-.24A.241.241,0,0,0,495.22,154.881Z" transform="translate(72.753 118.376)" fill="#c8c8c8"/>
    <path id="Path_613" data-name="Path 613" d="M488.926,155.956a.241.241,0,1,0-.242-.24A.241.241,0,0,0,488.926,155.956Z" transform="translate(67.047 119.351)" fill="#c8c8c8"/>
    <path id="Path_614" data-name="Path 614" d="M482.557,156.42a.242.242,0,1,0-.242-.242A.243.243,0,0,0,482.557,156.42Z" transform="translate(61.273 119.77)" fill="#c8c8c8"/>
    <path id="Path_615" data-name="Path 615" d="M476.174,156.266a.242.242,0,1,0-.242-.242A.241.241,0,0,0,476.174,156.266Z" transform="translate(55.487 119.63)" fill="#c8c8c8"/>
    <path id="Path_616" data-name="Path 616" d="M469.822,155.457a.215.215,0,1,0-.215-.215A.215.215,0,0,0,469.822,155.457Z" transform="translate(49.753 118.945)" fill="#c8c8c8"/>
    <path id="Path_617" data-name="Path 617" d="M463.587,154.078a.214.214,0,1,0-.215-.215A.215.215,0,0,0,463.587,154.078Z" transform="translate(44.1 117.696)" fill="#c8c8c8"/>
    <path id="Path_618" data-name="Path 618" d="M457.514,152.106a.215.215,0,1,0-.215-.215A.216.216,0,0,0,457.514,152.106Z" transform="translate(38.595 115.907)" fill="#c8c8c8"/>
    <path id="Path_619" data-name="Path 619" d="M451.66,149.556a.215.215,0,1,0-.215-.215A.216.216,0,0,0,451.66,149.556Z" transform="translate(33.287 113.595)" fill="#c8c8c8"/>
    <path id="Path_620" data-name="Path 620" d="M446.079,146.453a.215.215,0,1,0-.215-.215A.216.216,0,0,0,446.079,146.453Z" transform="translate(28.228 110.782)" fill="#c8c8c8"/>
    <path id="Path_621" data-name="Path 621" d="M440.824,142.824a.214.214,0,1,0-.215-.215A.215.215,0,0,0,440.824,142.824Z" transform="translate(23.464 107.494)" fill="#c8c8c8"/>
    <path id="Path_622" data-name="Path 622" d="M435.944,138.708a.215.215,0,1,0-.215-.215A.215.215,0,0,0,435.944,138.708Z" transform="translate(19.04 103.761)" fill="#c8c8c8"/>
    <circle id="Ellipse_199" data-name="Ellipse 199" cx="0.215" cy="0.215" r="0.215" transform="translate(446.265 233.326)" fill="#c8c8c8"/>
    <path id="Path_623" data-name="Path 623" d="M427.485,129.16a.215.215,0,1,0-.215-.215A.216.216,0,0,0,427.485,129.16Z" transform="translate(11.371 95.105)" fill="#c8c8c8"/>
    <circle id="Ellipse_200" data-name="Ellipse 200" cx="0.215" cy="0.215" r="0.215" transform="translate(431.97 213.651)" fill="#c8c8c8"/>
    <path id="Path_624" data-name="Path 624" d="M421.018,118.165a.215.215,0,1,0-.215-.215A.216.216,0,0,0,421.018,118.165Z" transform="translate(5.508 85.137)" fill="#c8c8c8"/>
    <path id="Path_625" data-name="Path 625" d="M418.609,112.251a.215.215,0,1,0-.214-.215A.216.216,0,0,0,418.609,112.251Z" transform="translate(3.326 79.775)" fill="#c8c8c8"/>
    <path id="Path_626" data-name="Path 626" d="M416.784,106.132a.215.215,0,1,0-.214-.215A.215.215,0,0,0,416.784,106.132Z" transform="translate(1.671 74.228)" fill="#c8c8c8"/>
    <path id="Path_627" data-name="Path 627" d="M415.558,99.864a.214.214,0,1,0-.215-.214A.213.213,0,0,0,415.558,99.864Z" transform="translate(0.558 68.548)" fill="#c8c8c8"/>
    <path id="Path_628" data-name="Path 628" d="M414.94,93.51a.215.215,0,1,0-.214-.215A.215.215,0,0,0,414.94,93.51Z" transform="translate(0 62.785)" fill="#c8c8c8"/>
    <path id="Path_629" data-name="Path 629" d="M414.94,87.123a.214.214,0,1,0-.214-.214A.214.214,0,0,0,414.94,87.123Z" transform="translate(0 56.997)" fill="#c8c8c8"/>
    <path id="Path_630" data-name="Path 630" d="M415.546,80.73a.189.189,0,1,0-.189-.189A.188.188,0,0,0,415.546,80.73Z" transform="translate(0.571 51.248)" fill="#c8c8c8"/>
    <path id="Path_631" data-name="Path 631" d="M416.771,74.462a.188.188,0,1,0-.187-.187A.188.188,0,0,0,416.771,74.462Z" transform="translate(1.684 45.567)" fill="#c8c8c8"/>
    <path id="Path_632" data-name="Path 632" d="M418.6,68.343a.188.188,0,1,0-.187-.187A.188.188,0,0,0,418.6,68.343Z" transform="translate(3.339 40.02)" fill="#c8c8c8"/>
    <path id="Path_633" data-name="Path 633" d="M421,62.429a.188.188,0,1,0-.187-.187A.188.188,0,0,0,421,62.429Z" transform="translate(5.522 34.658)" fill="#c8c8c8"/>
    <circle id="Ellipse_201" data-name="Ellipse 201" cx="0.188" cy="0.188" r="0.188" transform="translate(431.997 85.932)" fill="#c8c8c8"/>
    <path id="Path_634" data-name="Path 634" d="M427.473,51.434a.188.188,0,1,0-.189-.187A.187.187,0,0,0,427.473,51.434Z" transform="translate(11.384 24.69)" fill="#c8c8c8"/>
    <path id="Path_635" data-name="Path 635" d="M431.47,46.457a.189.189,0,1,0-.187-.189A.188.188,0,0,0,431.47,46.457Z" transform="translate(15.009 20.177)" fill="#c8c8c8"/>
    <path id="Path_636" data-name="Path 636" d="M435.932,41.886a.188.188,0,1,0-.189-.187A.187.187,0,0,0,435.932,41.886Z" transform="translate(19.053 16.035)" fill="#c8c8c8"/>
    <path id="Path_637" data-name="Path 637" d="M440.812,37.769a.188.188,0,1,0-.189-.189A.189.189,0,0,0,440.812,37.769Z" transform="translate(23.477 12.302)" fill="#c8c8c8"/>
    <circle id="Ellipse_202" data-name="Ellipse 202" cx="0.188" cy="0.188" r="0.188" transform="translate(474.119 42.779)" fill="#c8c8c8"/>
    <path id="Path_638" data-name="Path 638" d="M451.648,31.038a.188.188,0,1,0-.189-.187A.187.187,0,0,0,451.648,31.038Z" transform="translate(33.3 6.2)" fill="#c8c8c8"/>
    <path id="Path_639" data-name="Path 639" d="M457.5,28.488a.188.188,0,1,0-.189-.187A.189.189,0,0,0,457.5,28.488Z" transform="translate(38.607 3.888)" fill="#c8c8c8"/>
    <path id="Path_640" data-name="Path 640" d="M463.575,26.515a.188.188,0,1,0-.189-.189A.188.188,0,0,0,463.575,26.515Z" transform="translate(44.113 2.1)" fill="#c8c8c8"/>
    <path id="Path_641" data-name="Path 641" d="M469.81,25.137a.188.188,0,1,0-.189-.187A.187.187,0,0,0,469.81,25.137Z" transform="translate(49.765 0.85)" fill="#c8c8c8"/>
    <path id="Path_642" data-name="Path 642" d="M476.161,24.408a.215.215,0,1,0-.215-.215A.215.215,0,0,0,476.161,24.408Z" transform="translate(55.499 0.14)" fill="#c8c8c8"/>
    <path id="Path_643" data-name="Path 643" d="M482.544,24.252a.214.214,0,1,0-.215-.214A.215.215,0,0,0,482.544,24.252Z" transform="translate(61.286 0)" fill="#c8c8c8"/>
    <path id="Path_644" data-name="Path 644" d="M488.913,24.716a.215.215,0,1,0-.215-.215A.215.215,0,0,0,488.913,24.716Z" transform="translate(67.06 0.419)" fill="#c8c8c8"/>
    <path id="Path_645" data-name="Path 645" d="M495.207,25.791a.215.215,0,1,0-.215-.215A.216.216,0,0,0,495.207,25.791Z" transform="translate(72.766 1.393)" fill="#c8c8c8"/>
    <path id="Path_646" data-name="Path 646" d="M501.368,27.467a.214.214,0,1,0-.215-.214A.215.215,0,0,0,501.368,27.467Z" transform="translate(78.351 2.915)" fill="#c8c8c8"/>
    <path id="Path_647" data-name="Path 647" d="M507.338,29.733a.215.215,0,1,0-.214-.215A.215.215,0,0,0,507.338,29.733Z" transform="translate(83.764 4.967)" fill="#c8c8c8"/>
    <path id="Path_648" data-name="Path 648" d="M513.062,32.563a.215.215,0,1,0-.214-.215A.215.215,0,0,0,513.062,32.563Z" transform="translate(88.954 7.533)" fill="#c8c8c8"/>
    <path id="Path_649" data-name="Path 649" d="M518.487,35.932a.215.215,0,1,0-.215-.215A.215.215,0,0,0,518.487,35.932Z" transform="translate(93.871 10.587)" fill="#c8c8c8"/>
    <path id="Path_650" data-name="Path 650" d="M523.56,39.809a.215.215,0,1,0-.216-.215A.215.215,0,0,0,523.56,39.809Z" transform="translate(98.47 14.102)" fill="#c8c8c8"/>
    <path id="Path_651" data-name="Path 651" d="M528.236,44.156a.214.214,0,1,0-.215-.214A.215.215,0,0,0,528.236,44.156Z" transform="translate(102.709 18.044)" fill="#c8c8c8"/>
    <path id="Path_652" data-name="Path 652" d="M532.469,48.937a.215.215,0,1,0-.214-.215A.215.215,0,0,0,532.469,48.937Z" transform="translate(106.548 22.377)" fill="#c8c8c8"/>
    <path id="Path_653" data-name="Path 653" d="M536.224,54.1a.215.215,0,1,0-.216-.215A.215.215,0,0,0,536.224,54.1Z" transform="translate(109.951 27.06)" fill="#c8c8c8"/>
    <circle id="Ellipse_203" data-name="Ellipse 203" cx="0.215" cy="0.215" r="0.215" transform="translate(652.131 91.226)" fill="#c8c8c8"/>
    <path id="Path_654" data-name="Path 654" d="M542.152,65.4a.215.215,0,1,0-.215-.215A.215.215,0,0,0,542.152,65.4Z" transform="translate(115.325 37.3)" fill="#c8c8c8"/>
    <path id="Path_655" data-name="Path 655" d="M544.271,71.421a.215.215,0,1,0-.215-.215A.215.215,0,0,0,544.271,71.421Z" transform="translate(117.246 42.76)" fill="#c8c8c8"/>
    <path id="Path_656" data-name="Path 656" d="M545.8,77.621a.215.215,0,1,0-.216-.215A.216.216,0,0,0,545.8,77.621Z" transform="translate(118.631 48.381)" fill="#c8c8c8"/>
    <circle id="Ellipse_204" data-name="Ellipse 204" cx="0.215" cy="0.215" r="0.215" transform="translate(665.975 137.618)" fill="#c8c8c8"/>
  </g>
</svg>
