<svg xmlns="http://www.w3.org/2000/svg" width="16.164" height="16.936" viewBox="0 0 16.164 16.936">
  <path id="left-arrow" d="M1392.36,717.542c-.172-.538-.584-.641-1.087-.641h-12.43c.141-.153.224-.249.313-.338l5.854-5.862c.062-.062.127-.122.186-.187a.762.762,0,1,0-1.068-1.087c-.075.065-.144.136-.214.206l-7.306,7.3c-.546.546-.549.918-.011,1.455l7.421,7.421a.792.792,0,0,0,1.164.144.731.731,0,0,0,.122-.981,2.982,2.982,0,0,0-.329-.369l-5.833-5.836c-.083-.083-.162-.17-.307-.323h12.455a1.018,1.018,0,0,0,1.07-.583Z" transform="translate(-1376.196 -709.208)" fill="#bebebe"/>
</svg>
