<svg width="559" height="559" viewBox="0 0 559 559" fill="none" xmlns="http://www.w3.org/2000/svg">
<circle cx="279.5" cy="279.5" r="279.5" fill="url(#paint0_linear_270_144)"/>
<path fill-rule="evenodd" clip-rule="evenodd" d="M353.506 181.063L339.476 198.651L344.069 198.781L348.662 198.91V297.455V396H367.546H386.431V297.439V198.878H391.216H396L382.281 181.732C374.736 172.302 368.331 164.336 368.049 164.03C367.657 163.605 364.235 167.613 353.506 181.063ZM195.111 170.105C194.451 171.567 192.516 175.828 190.809 179.575L187.707 186.388L177.402 187.523C171.733 188.147 167.095 188.774 167.095 188.916C167.095 189.059 170.472 192.227 174.598 195.957C178.724 199.687 182.102 203.046 182.103 203.42C182.104 203.795 181.206 208.459 180.106 213.785C178.403 222.032 178.217 223.425 178.858 223.18C179.271 223.022 183.342 220.76 187.904 218.153C192.466 215.546 196.332 213.413 196.495 213.413C196.658 213.413 200.771 215.683 205.633 218.458C210.496 221.233 214.552 223.425 214.647 223.331C214.742 223.236 213.907 218.769 212.791 213.403C211.676 208.037 210.818 203.43 210.886 203.164C210.953 202.898 214.336 199.658 218.403 195.963C222.47 192.268 225.797 189.103 225.797 188.93C225.797 188.757 221.166 188.114 215.505 187.501L205.213 186.388L201.131 177.304C198.886 172.308 196.883 168.047 196.68 167.834C196.476 167.622 195.771 168.644 195.111 170.105ZM273.82 176.509C271.603 181.443 269.621 185.702 269.414 185.973C269.208 186.245 264.583 186.938 259.136 187.514C253.689 188.09 249.096 188.685 248.928 188.837C248.761 188.989 252.064 192.232 256.269 196.045L263.913 202.976L261.85 212.969C260.715 218.466 259.886 223.063 260.009 223.184C260.131 223.306 264.261 221.133 269.187 218.355L278.143 213.305L287.057 218.383C291.96 221.176 296.065 223.367 296.18 223.252C296.343 223.09 293.666 209.243 292.463 204.024C292.277 203.215 293.556 201.835 299.63 196.297C303.697 192.59 307.127 189.354 307.252 189.107C307.39 188.835 303.556 188.214 297.468 187.523C291.962 186.899 287.252 186.253 287.002 186.088C286.752 185.923 284.704 181.687 282.451 176.674C280.199 171.661 278.242 167.555 278.103 167.549C277.964 167.543 276.036 171.575 273.82 176.509ZM286.774 318.332V396H305.659H324.544V318.332V240.665H305.659H286.774V318.332ZM224.887 338.998V396H243.772H262.657V338.998V281.996H243.772H224.887V338.998ZM163 359.659V396H181.887H200.775L200.658 359.778L200.542 323.556L181.771 323.437L163 323.318V359.659Z" fill="white"/>
<defs>
<linearGradient id="paint0_linear_270_144" x1="59.5" y1="3.35792e-06" x2="465.5" y2="527" gradientUnits="userSpaceOnUse">
<stop stop-color="#000000"/>
<stop offset="1" stop-color="#FAFA33"/>
</linearGradient>
</defs>
</svg>
