<svg width="559" height="559" viewBox="0 0 559 559" fill="none" xmlns="http://www.w3.org/2000/svg">
<circle cx="279.5" cy="279.5" r="279.5" fill="url(#paint0_linear_270_143)"/>
<path fill-rule="evenodd" clip-rule="evenodd" d="M302.578 139.342C277.665 142.384 255.821 152.967 238.63 170.323C206.671 202.591 198.739 251.233 218.878 291.454C224.679 303.04 230.433 310.97 239.548 319.941C248.47 328.723 255.339 333.649 266.625 339.362C318.719 365.733 383.368 343.902 409.082 291.258C428.798 250.894 421.397 203.814 390.239 171.388C381.113 161.891 372.678 155.762 360.487 149.77C350.136 144.683 342.399 142.166 330.846 140.128C324.975 139.093 308.397 138.632 302.578 139.342ZM322.338 214.055V236.584H344.843H367.348V244.826V253.069H336.61H305.871V222.298V191.526H314.105H322.338V214.055ZM159.169 263.381L139 283.577L144.91 289.475L150.819 295.373L170.989 275.176L191.158 254.98L185.248 249.082L179.339 243.184L159.169 263.381ZM168.921 316.26L146.972 338.239L152.735 344.008L158.498 349.778L180.448 327.799L202.398 305.82L196.635 300.05L190.871 294.281L168.921 316.26ZM184.114 363.217L158.492 388.745L164.394 394.673L170.295 400.6L196.089 374.783L221.883 348.966L216.27 343.328C213.183 340.227 210.45 337.69 210.196 337.69C209.943 337.69 198.206 349.177 184.114 363.217ZM231.356 378.492C219.508 390.355 209.814 400.312 209.814 400.619C209.814 401.332 220.36 411.87 221.074 411.87C221.369 411.87 231.429 402.044 243.428 390.034L265.246 368.198L259.633 362.56C256.546 359.459 253.768 356.922 253.459 356.922C253.15 356.922 243.204 366.628 231.356 378.492ZM284.363 388.108L264.239 408.299L269.823 414.15L275.408 420L295.889 399.863L316.37 379.725L310.428 373.822L304.488 367.917L284.363 388.108Z" fill="white"/>
<defs>
<linearGradient id="paint0_linear_270_143" x1="59.5" y1="3.35792e-06" x2="465.5" y2="527" gradientUnits="userSpaceOnUse">
<stop stop-color="#000000"/>
<stop offset="1" stop-color="#FAFA33"/>
</linearGradient>
</defs>
</svg>
