<svg xmlns="http://www.w3.org/2000/svg" xmlns:xlink="http://www.w3.org/1999/xlink" width="1883" height="709" viewBox="0 0 1883 709">
  <defs>
    <filter id="Rectangle_193" x="1618" y="540" width="94" height="94" filterUnits="userSpaceOnUse">
      <feOffset input="SourceAlpha"/>
      <feGaussianBlur stdDeviation="5" result="blur"/>
      <feFlood flood-opacity="0.161"/>
      <feComposite operator="in" in2="blur"/>
      <feComposite in="SourceGraphic"/>
    </filter>
    <linearGradient id="linear-gradient" y1="1" x2="1" gradientUnits="objectBoundingBox">
      <stop offset="0" stop-color="#fff"/>
      <stop offset="0.448" stop-color="#f4f6f9"/>
      <stop offset="0.477" stop-color="#ebeef3"/>
      <stop offset="1" stop-color="#f5f9ff"/>
    </linearGradient>
    <filter id="Rectangle_198" x="1782" y="410" width="82" height="82" filterUnits="userSpaceOnUse">
      <feOffset dy="3" input="SourceAlpha"/>
      <feGaussianBlur stdDeviation="3" result="blur-2"/>
      <feFlood flood-opacity="0.161"/>
      <feComposite operator="in" in2="blur-2"/>
      <feComposite in="SourceGraphic"/>
    </filter>
    <filter id="Rectangle_208" x="1577" y="124" width="82" height="82" filterUnits="userSpaceOnUse">
      <feOffset dy="3" input="SourceAlpha"/>
      <feGaussianBlur stdDeviation="3" result="blur-3"/>
      <feFlood flood-opacity="0.161"/>
      <feComposite operator="in" in2="blur-3"/>
      <feComposite in="SourceGraphic"/>
    </filter>
    <filter id="Rectangle_193-2" x="171" y="75" width="94" height="94" filterUnits="userSpaceOnUse">
      <feOffset input="SourceAlpha"/>
      <feGaussianBlur stdDeviation="5" result="blur-4"/>
      <feFlood flood-opacity="0.161"/>
      <feComposite operator="in" in2="blur-4"/>
      <feComposite in="SourceGraphic"/>
    </filter>
    <linearGradient id="linear-gradient-2" x1="1" y1="0" x2="0" y2="1" xlink:href="#linear-gradient"/>
    <filter id="Rectangle_198-2" x="19" y="223" width="82" height="82" filterUnits="userSpaceOnUse">
      <feOffset dy="3" input="SourceAlpha"/>
      <feGaussianBlur stdDeviation="3" result="blur-5"/>
      <feFlood flood-opacity="0.161"/>
      <feComposite operator="in" in2="blur-5"/>
      <feComposite in="SourceGraphic"/>
    </filter>
    <filter id="Rectangle_208-2" x="224" y="509" width="82" height="82" filterUnits="userSpaceOnUse">
      <feOffset dy="3" input="SourceAlpha"/>
      <feGaussianBlur stdDeviation="3" result="blur-6"/>
      <feFlood flood-opacity="0.161"/>
      <feComposite operator="in" in2="blur-6"/>
      <feComposite in="SourceGraphic"/>
    </filter>
  </defs>
  <g id="Group_78" data-name="Group 78" transform="translate(-19 -8499)">
    <g id="Group_26" data-name="Group 26" transform="translate(1474 8499)">
      <rect id="Rectangle_189" data-name="Rectangle 189" width="64" height="64" rx="5" transform="translate(146 555)" fill="#fafbfd"/>
      <g transform="matrix(1, 0, 0, 1, -1455, 0)" filter="url(#Rectangle_193)">
        <rect id="Rectangle_193-3" data-name="Rectangle 193" width="64" height="64" rx="5" transform="translate(1633 555)" fill="#fafbfd"/>
      </g>
      <rect id="Rectangle_190" data-name="Rectangle 190" width="64" height="64" rx="5" transform="translate(225 555)" fill="#fafbfd"/>
      <rect id="Rectangle_188" data-name="Rectangle 188" width="64" height="64" rx="5" transform="translate(0 632)" fill="#ebeef3"/>
      <rect id="Rectangle_196" data-name="Rectangle 196" width="64" height="64" rx="5" transform="translate(311 515)" fill="#fafbfd"/>
      <rect id="Rectangle_197" data-name="Rectangle 197" width="64" height="64" rx="5" transform="translate(311 443)" fill="#ebeef3"/>
      <rect id="Rectangle_209" data-name="Rectangle 209" width="64" height="64" rx="5" transform="translate(105 82)" fill="#ebeef3"/>
      <rect id="Rectangle_210" data-name="Rectangle 210" width="64" height="64" rx="5" transform="translate(183 75)" fill="#fafbfd"/>
      <rect id="Rectangle_212" data-name="Rectangle 212" width="64" height="64" rx="5" transform="translate(178)" fill="#fafbfd"/>
      <rect id="Rectangle_213" data-name="Rectangle 213" width="64" height="64" rx="5" transform="translate(274 55)" fill="#fafbfd"/>
      <rect id="Rectangle_214" data-name="Rectangle 214" width="64" height="64" rx="5" transform="translate(99 623)" fill="#fafbfd"/>
      <rect id="Rectangle_200" data-name="Rectangle 200" width="64" height="64" rx="5" transform="translate(247 361)" fill="#ebeef3"/>
      <rect id="Rectangle_207" data-name="Rectangle 207" width="64" height="64" rx="5" transform="translate(100 162)" fill="#fafbfd"/>
      <rect id="Rectangle_203" data-name="Rectangle 203" width="64" height="64" rx="5" transform="translate(195 267)" fill="#ffdfd9"/>
      <rect id="Rectangle_206" data-name="Rectangle 206" width="26" height="26" rx="5" transform="translate(184 205)" fill="#FAFA33"/>
      <rect id="Rectangle_201" data-name="Rectangle 201" width="64" height="64" rx="5" transform="translate(169 361)" fill="#fafbfd"/>
      <rect id="Rectangle_204" data-name="Rectangle 204" width="64" height="64" rx="5" transform="translate(289 289)" fill="#fafbfd"/>
      <rect id="Rectangle_205" data-name="Rectangle 205" width="64" height="64" rx="5" transform="translate(328 176)" fill="url(#linear-gradient)"/>
      <g id="Rectangle_199" data-name="Rectangle 199" transform="translate(392 466)" fill="none" stroke="#ebeef3" stroke-width="1">
        <rect width="36" height="36" rx="5" stroke="none"/>
        <rect x="0.5" y="0.5" width="35" height="35" rx="4.5" fill="none"/>
      </g>
      <g transform="matrix(1, 0, 0, 1, -1455, 0)" filter="url(#Rectangle_198)">
        <rect id="Rectangle_198-3" data-name="Rectangle 198" width="64" height="64" rx="5" transform="translate(1791 416)" fill="#fff"/>
      </g>
      <g transform="matrix(1, 0, 0, 1, -1455, 0)" filter="url(#Rectangle_208)">
        <rect id="Rectangle_208-3" data-name="Rectangle 208" width="64" height="64" rx="5" transform="translate(1586 130)" fill="#fff"/>
      </g>
      <rect id="Rectangle_191" data-name="Rectangle 191" width="64" height="64" rx="5" transform="translate(225 475)" fill="#fafbfd"/>
      <rect id="Rectangle_192" data-name="Rectangle 192" width="64" height="64" rx="5" transform="translate(146 475)" fill="#fafbfd"/>
      <g id="Rectangle_194" data-name="Rectangle 194" transform="translate(210 523)" fill="none" stroke="#000000" stroke-width="1">
        <rect width="64" height="64" rx="5" stroke="none"/>
        <rect x="0.5" y="0.5" width="63" height="63" rx="4.5" fill="none"/>
      </g>
      <g id="Rectangle_211" data-name="Rectangle 211" transform="translate(178 119)" fill="none" stroke="#000000" stroke-width="1">
        <rect width="36" height="36" rx="5" stroke="none"/>
        <rect x="0.5" y="0.5" width="35" height="35" rx="4.5" fill="none"/>
      </g>
      <g id="Rectangle_195" data-name="Rectangle 195" transform="translate(289 628)" fill="none" stroke="#FAFA33" stroke-width="1">
        <rect width="64" height="64" rx="5" stroke="none"/>
        <rect x="0.5" y="0.5" width="63" height="63" rx="4.5" fill="none"/>
      </g>
    </g>
    <g id="Group_24" data-name="Group 24" transform="translate(10 -736)">
      <rect id="Rectangle_189-2" data-name="Rectangle 189" width="64" height="64" rx="5" transform="translate(227 9325)" fill="#fafbfd"/>
      <g transform="matrix(1, 0, 0, 1, 9, 9235)" filter="url(#Rectangle_193-2)">
        <rect id="Rectangle_193-4" data-name="Rectangle 193" width="64" height="64" rx="5" transform="translate(186 90)" fill="#fafbfd"/>
      </g>
      <rect id="Rectangle_190-2" data-name="Rectangle 190" width="64" height="64" rx="5" transform="translate(148 9325)" fill="#fafbfd"/>
      <rect id="Rectangle_188-2" data-name="Rectangle 188" width="64" height="64" rx="5" transform="translate(373 9248)" fill="#ebeef3"/>
      <rect id="Rectangle_196-2" data-name="Rectangle 196" width="64" height="64" rx="5" transform="translate(62 9365)" fill="#fafbfd"/>
      <rect id="Rectangle_197-2" data-name="Rectangle 197" width="64" height="64" rx="5" transform="translate(62 9437)" fill="#ebeef3"/>
      <rect id="Rectangle_209-2" data-name="Rectangle 209" width="64" height="64" rx="5" transform="translate(268 9798)" fill="#ebeef3"/>
      <rect id="Rectangle_210-2" data-name="Rectangle 210" width="64" height="64" rx="5" transform="translate(190 9805)" fill="#fafbfd"/>
      <rect id="Rectangle_212-2" data-name="Rectangle 212" width="64" height="64" rx="5" transform="translate(195 9880)" fill="#fafbfd"/>
      <rect id="Rectangle_213-2" data-name="Rectangle 213" width="64" height="64" rx="5" transform="translate(99 9825)" fill="#fafbfd"/>
      <rect id="Rectangle_214-2" data-name="Rectangle 214" width="64" height="64" rx="5" transform="translate(274 9257)" fill="#fafbfd"/>
      <rect id="Rectangle_200-2" data-name="Rectangle 200" width="64" height="64" rx="5" transform="translate(126 9519)" fill="#ebeef3"/>
      <rect id="Rectangle_207-2" data-name="Rectangle 207" width="64" height="64" rx="5" transform="translate(273 9718)" fill="#fafbfd"/>
      <rect id="Rectangle_203-2" data-name="Rectangle 203" width="64" height="64" rx="5" transform="translate(178 9613)" fill="#ffdfd9"/>
      <rect id="Rectangle_206-2" data-name="Rectangle 206" width="26" height="26" rx="5" transform="translate(227 9713)" fill="#FAFA33"/>
      <rect id="Rectangle_201-2" data-name="Rectangle 201" width="64" height="64" rx="5" transform="translate(204 9519)" fill="#fafbfd"/>
      <rect id="Rectangle_204-2" data-name="Rectangle 204" width="64" height="64" rx="5" transform="translate(84 9591)" fill="#fafbfd"/>
      <rect id="Rectangle_205-2" data-name="Rectangle 205" width="64" height="64" rx="5" transform="translate(45 9704)" fill="url(#linear-gradient-2)"/>
      <g id="Rectangle_199-2" data-name="Rectangle 199" transform="translate(9 9442)" fill="none" stroke="#ebeef3" stroke-width="1">
        <rect width="36" height="36" rx="5" stroke="none"/>
        <rect x="0.5" y="0.5" width="35" height="35" rx="4.5" fill="none"/>
      </g>
      <g transform="matrix(1, 0, 0, 1, 9, 9235)" filter="url(#Rectangle_198-2)">
        <rect id="Rectangle_198-4" data-name="Rectangle 198" width="64" height="64" rx="5" transform="translate(28 229)" fill="#fff"/>
      </g>
      <g transform="matrix(1, 0, 0, 1, 9, 9235)" filter="url(#Rectangle_208-2)">
        <rect id="Rectangle_208-4" data-name="Rectangle 208" width="64" height="64" rx="5" transform="translate(233 515)" fill="#fff"/>
      </g>
      <rect id="Rectangle_191-2" data-name="Rectangle 191" width="64" height="64" rx="5" transform="translate(148 9405)" fill="#fafbfd"/>
      <rect id="Rectangle_192-2" data-name="Rectangle 192" width="64" height="64" rx="5" transform="translate(227 9405)" fill="#fafbfd"/>
      <g id="Rectangle_194-2" data-name="Rectangle 194" transform="translate(163 9357)" fill="none" stroke="#000000" stroke-width="1">
        <rect width="64" height="64" rx="5" stroke="none"/>
        <rect x="0.5" y="0.5" width="63" height="63" rx="4.5" fill="none"/>
      </g>
      <g id="Rectangle_211-2" data-name="Rectangle 211" transform="translate(223 9789)" fill="none" stroke="#000000" stroke-width="1">
        <rect width="36" height="36" rx="5" stroke="none"/>
        <rect x="0.5" y="0.5" width="35" height="35" rx="4.5" fill="none"/>
      </g>
      <g id="Rectangle_195-2" data-name="Rectangle 195" transform="translate(84 9252)" fill="none" stroke="#FAFA33" stroke-width="1">
        <rect width="64" height="64" rx="5" stroke="none"/>
        <rect x="0.5" y="0.5" width="63" height="63" rx="4.5" fill="none"/>
      </g>
    </g>
  </g>
</svg>
