<svg xmlns="http://www.w3.org/2000/svg" width="29.846" height="23.874" viewBox="0 0 29.846 23.874">
  <g id="Page-1" transform="translate(0 -0.002)">
    <g id="Dribbble-Light-Preview" transform="translate(0 0.002)">
      <g id="icons">
        <path id="twitter-_154_" data-name="twitter-[#154]" d="M13.387,7384.876a17.166,17.166,0,0,0,17.423-17.147c0-.268,0-.521-.018-.79a12.329,12.329,0,0,0,3.055-3.119,12.423,12.423,0,0,1-3.516.955,6.1,6.1,0,0,0,2.692-3.343,12.129,12.129,0,0,1-3.889,1.463,6.207,6.207,0,0,0-8.664-.254,5.972,5.972,0,0,0-1.771,5.76,17.538,17.538,0,0,1-12.62-6.3,5.975,5.975,0,0,0,1.9,8.043,6.216,6.216,0,0,1-2.78-.746v.075a6.071,6.071,0,0,0,4.913,5.909,6.187,6.187,0,0,1-2.764.09,6.11,6.11,0,0,0,5.72,4.192,12.275,12.275,0,0,1-7.6,2.583c-.486,0-.973-.03-1.458-.075a17.649,17.649,0,0,0,9.387,2.7" transform="translate(-4 -7361.002)" fill="#fff" fill-rule="evenodd"/>
      </g>
    </g>
  </g>
</svg>
