<svg width="559" height="559" viewBox="0 0 559 559" fill="none" xmlns="http://www.w3.org/2000/svg">
<circle cx="279.5" cy="279.5" r="279.5" fill="url(#paint0_linear_270_145)"/>
<path fill-rule="evenodd" clip-rule="evenodd" d="M307.42 152.547C284.966 155.088 263.423 166.615 248.995 183.809C228.788 207.889 222.575 239.814 232.264 269.775C234.132 275.551 239.288 286.037 242.923 291.452C263.449 322.022 300.334 336.939 336.312 329.218C353.489 325.532 370.805 315.785 382.426 303.263C405.259 278.658 412.746 245.192 402.502 213.517C400.612 207.671 395.469 197.253 391.679 191.591C373.343 164.201 340.191 148.839 307.42 152.547ZM324.914 190.081C333.414 191.567 341.881 195.28 350.26 201.192C356.222 205.398 369.646 218.706 374.74 225.459C379.422 231.666 385.628 240.876 385.628 241.617C385.628 242.39 378.539 252.873 374.158 258.58C369.199 265.038 356.039 278.024 350.518 281.905C327.9 297.807 306.995 297.837 284.382 281.998C278.564 277.923 265.115 264.58 260.026 257.833C255.313 251.585 249.138 242.414 249.138 241.663C249.138 240.85 254.102 233.417 259.296 226.455C264.99 218.821 278.007 205.777 284.506 201.192C298.147 191.567 311.859 187.796 324.914 190.081ZM310.16 205.251C303.492 206.946 298.81 209.312 291.494 214.681C284.519 219.799 274.706 230.121 268.348 239.028L266.484 241.64L268.375 244.258C281.926 263.016 297.478 275.429 310.987 278.27C321.407 280.462 332.247 277.128 344.033 268.108C350.641 263.05 360.169 252.945 366.045 244.76L368.279 241.648L366.393 239.032C358.79 228.49 348.267 217.801 340.142 212.369C329.362 205.162 319.614 202.848 310.16 205.251ZM321.966 219.789C326.282 220.696 329.853 222.664 333.096 225.921C345.943 238.825 338.94 260.565 320.942 263.651C313.892 264.86 306.982 262.599 301.683 257.35C292.812 248.563 292.815 234.725 301.691 225.934C307.28 220.398 314.483 218.215 321.966 219.789ZM313.777 235.202C311.674 236.312 309.911 239.251 309.911 241.646C309.911 245.328 313.682 249.117 317.346 249.117C321.064 249.117 324.855 245.364 324.855 241.683C324.855 239.178 323.105 236.311 320.883 235.178C318.429 233.926 316.18 233.933 313.777 235.202ZM223.105 304.282L217.262 310.139L233.08 325.95L248.899 341.76L254.872 335.741L260.844 329.721L259.664 328.915C249.091 321.686 238.027 310.831 231.496 301.278C230.423 299.708 229.411 298.424 229.246 298.424C229.082 298.424 226.318 301.06 223.105 304.282ZM179.271 348.109L152 375.379L167.818 391.189L183.637 407L210.909 379.729L238.18 352.459L222.362 336.649L206.543 320.838L179.271 348.109Z" fill="white"/>
<defs>
<linearGradient id="paint0_linear_270_145" x1="59.5" y1="3.35792e-06" x2="465.5" y2="527" gradientUnits="userSpaceOnUse">
<stop stop-color="#000000"/>
<stop offset="1" stop-color="#FAFA33"/>
</linearGradient>
</defs>
</svg>
