<svg width="559" height="559" viewBox="0 0 559 559" fill="none" xmlns="http://www.w3.org/2000/svg">
<circle cx="279.5" cy="279.5" r="279.5" fill="url(#paint0_linear_282_84)"/>
<path fill-rule="evenodd" clip-rule="evenodd" d="M218.949 191.368L160.124 220.945L279.675 220.973L399.225 221.001L340.7 191.624C296.187 169.28 281.648 162.192 279.975 162.019C277.865 161.8 275.355 163.008 218.949 191.368ZM155.313 236.999C157.261 245.348 167.329 260.99 172.605 263.866L174.622 264.965H279.5H384.378L386.395 263.866C391.671 260.99 401.739 245.348 403.687 236.999L404 235.656H279.5H155L155.313 236.999ZM184.194 323.828V368.036H206.318H228.443V323.828V279.62H206.318H184.194V323.828ZM257.618 323.828V368.036H279.5H301.382V323.828V279.62H279.5H257.618V323.828ZM330.557 323.828V368.036H352.682H374.806V323.828V279.62H352.682H330.557V323.828ZM168.369 383.375C164.532 385.058 155.018 400.143 155.018 404.544C155.018 407.087 156.698 409.89 158.896 411.017C160.803 411.994 161.51 412 279.5 412C397.49 412 398.197 411.994 400.104 411.017C402.318 409.882 403.982 407.083 403.982 404.492C403.982 400.866 395.604 386.897 391.668 383.959L390.295 382.935L280.072 382.83C189.275 382.744 169.589 382.84 168.369 383.375Z" fill="white"/>
<defs>
<linearGradient id="paint0_linear_282_84" x1="59.5" y1="3.35792e-06" x2="465.5" y2="527" gradientUnits="userSpaceOnUse">
<stop stop-color="#000000"/>
<stop offset="1" stop-color="#FAFA33"/>
</linearGradient>
</defs>
</svg>
