<svg width="559" height="559" viewBox="0 0 559 559" fill="none" xmlns="http://www.w3.org/2000/svg">
<circle cx="279.5" cy="279.5" r="279.5" fill="url(#paint0_linear_282_86)"/>
<path fill-rule="evenodd" clip-rule="evenodd" d="M203.271 199.981C162.539 214.383 128.486 226.699 127.597 227.351C122.438 231.132 122.91 239.067 128.486 242.291C129.458 242.853 163.62 255.175 204.401 269.673C267.146 291.98 278.925 295.989 280.991 295.745C283.704 295.424 428.863 243.936 431.664 242.301C434.697 240.531 436 238.202 436 234.554C436 230.902 434.699 228.581 431.652 226.795C430.674 226.222 397.061 214.16 356.957 199.991C302.648 180.803 283.186 174.174 280.686 174.013C277.569 173.813 272.023 175.673 203.271 199.981ZM404.724 271.649L396.027 274.784V311.248V347.711L392.42 351.32C389.639 354.101 388.59 355.678 387.843 358.196C385.659 365.552 387.378 372.306 392.749 377.469L395.986 380.58L396.159 404.446C396.327 427.615 396.369 428.362 397.617 430.035C401.558 435.322 408.805 435.322 412.746 430.035C413.994 428.36 414.035 427.622 414.203 404.027L414.375 379.742L415.967 378.889C418.391 377.592 421.573 373.019 422.662 369.268C424.642 362.458 422.487 355.139 417.11 350.404L414.335 347.96V308.199C414.335 286.331 414.13 268.456 413.878 268.476C413.626 268.497 409.506 269.925 404.724 271.649ZM188.034 305.224C188.226 326.437 188.25 326.787 189.675 329.683C193.48 337.414 204.13 343.941 221.557 349.223C256.485 359.809 303.618 359.815 338.661 349.236C355.922 344.025 366.676 337.399 370.51 329.61C371.891 326.807 371.926 326.282 372.116 305.224C372.251 290.221 372.112 283.702 371.657 283.702C371.298 283.702 351.987 290.495 328.743 298.798L286.483 313.894L280.075 313.887L273.667 313.88L231.478 298.792C208.274 290.492 188.963 283.702 188.565 283.702C188.016 283.702 187.887 288.913 188.034 305.224Z" fill="white"/>
<defs>
<linearGradient id="paint0_linear_282_86" x1="59.5" y1="3.35792e-06" x2="465.5" y2="527" gradientUnits="userSpaceOnUse">
<stop stop-color="#000000"/>
<stop offset="1" stop-color="#FAFA33"/>
</linearGradient>
</defs>
</svg>
