<svg xmlns="http://www.w3.org/2000/svg" viewBox="0 0 66.98 99.85"><defs><style>.cls-1{fill:#fff;}</style></defs><g id="Layer_2" data-name="Layer 2"><g id="DESIGNED_BY_FREEPIK" data-name="DESIGNED BY FREEPIK"><path class="cls-1" d="M67,79.36v.36c-.13,0-.21.08-.3.13l-22,13.24L33.79,99.67c-.08,0-.18.06-.2.18h-.2c0-.13-.16-.15-.25-.21l-18.22-11L.25,79.82c-.08,0-.15-.12-.25-.1v-.36c.12,0,.1-.17.11-.26Q1.21,74,2.29,68.79L9.94,32.44a.9.9,0,0,1,.16-.36l3.49-4.79L32.23,1.72c.42-.57.83-1.15,1.24-1.72h0l.14.22,6.12,8.33L56.83,31.81a1,1,0,0,1,.21.42q1.58,7.58,3.17,15.13,2.51,12,5,24c.54,2.6,1.09,5.21,1.64,7.81C66.88,79.2,66.86,79.32,67,79.36Zm-33.49-71-.71,1L15.56,32.85a.46.46,0,0,0-.08.49c.88,2.61,1.74,5.23,2.62,7.84q7.63,22.93,15.29,45.88a.47.47,0,0,0,.11.24c0-.09.06-.15.08-.22q9-26.85,17.91-53.7a.55.55,0,0,0-.09-.56L33.94,9C33.8,8.75,33.65,8.56,33.49,8.34Zm3.56,83.74a.68.68,0,0,0,.32-.15l4.45-2.67L61.33,77.53a.34.34,0,0,0,.18-.43L57.13,55.93l-3-14.35a.53.53,0,0,0-.11-.29Zm-7.13,0q-8.49-25.39-17-50.76h0l-.06.22q-.84,4.13-1.7,8.23Q8.3,63.45,5.46,77.12a.32.32,0,0,0,.18.4l6.07,3.65L29.64,92A.55.55,0,0,0,29.92,92.07Z"/></g></g></svg>