<svg xmlns="http://www.w3.org/2000/svg" viewBox="0 0 69.36 100.5"><defs><style>.cls-1{fill:#fff;}</style></defs><g id="Layer_2" data-name="Layer 2"><g id="DESIGNED_BY_FREEPIK" data-name="DESIGNED BY FREEPIK"><path class="cls-1" d="M34.74,100.5c-4.28-5-8.55-10.06-12.83-15.07Q11.28,73,.63,60.52L0,59.75,34.79,0l1.73,2.94Q52.77,30.86,69.05,58.75a1.36,1.36,0,0,1-.17,1.91q-16.71,19.47-33.35,39c-.22.26-.55.46-.6.85Zm27-42.6c-8-13.71-15.9-27.29-23.8-40.87l-.15.1V66.77ZM31.78,66.75V16.88L7.89,57.9ZM56.2,66.4c-.23,0-.3-.06-.36,0Q47,69.62,38.24,72.85c-.54.2-.52.56-.52,1q0,4.75,0,9.51V88ZM31.84,88c0-5,0-9.76,0-14.49,0-.51-.35-.55-.68-.67l-17-6.31c-.24-.09-.46-.25-.73-.1Z"/></g></g></svg>