<svg width="559" height="559" viewBox="0 0 559 559" fill="none" xmlns="http://www.w3.org/2000/svg">
<circle cx="279.5" cy="279.5" r="279.5" fill="url(#paint0_linear_282_85)"/>
<path fill-rule="evenodd" clip-rule="evenodd" d="M201.766 193.747C195.419 194.895 190.696 196.527 184.397 199.75C171.373 206.416 161.311 217.646 156.575 230.805C155.662 233.343 150.208 255.354 144.457 279.718L134 324.017L134.034 330.59C134.062 336.179 134.29 337.791 135.558 341.356C137.58 347.04 140.164 351.183 144.299 355.372C154.652 365.86 170.651 369.008 182.631 362.915C188.586 359.886 191.444 356.394 200.897 340.599C210.18 325.088 212.463 322.262 216.747 320.974C219.95 320.011 339.05 320.011 342.253 320.974C346.537 322.262 348.82 325.088 358.103 340.599C367.771 356.754 370.296 359.778 376.864 363.073C381.592 365.444 385.845 366.241 391.687 365.853C400.743 365.25 408.268 361.818 414.675 355.37C418.829 351.189 421.413 347.059 423.442 341.356C424.71 337.791 424.938 336.179 424.966 330.59L425 324.017L414.545 279.718C408.794 255.354 403.511 233.872 402.805 231.982C399.662 223.571 394.662 215.841 388.22 209.44C381.13 202.393 372.557 197.529 362.142 194.643L356.664 193.125L281.493 193.024C218.213 192.939 205.601 193.054 201.766 193.747ZM229.477 231.197C232.212 233.152 233.005 235.383 233.266 241.85L233.502 247.709L238.135 247.712C244.105 247.716 246.88 248.522 249.116 250.902C251.57 253.513 252.044 256.528 250.539 259.944C248.748 264.009 246.862 264.852 239.557 264.854L233.498 264.857L233.287 271.001C233.05 277.942 232.13 280.309 228.947 282.175C225.283 284.322 219.655 283.068 217.435 279.608C216.868 278.723 216.492 276.124 216.296 271.716L216.003 265.142L209.454 264.857C202.338 264.546 200.868 263.964 198.919 260.687C197.652 258.554 197.707 254.431 199.034 252.15C200.893 248.956 203.251 248.032 210.166 247.794L216.288 247.582L216.29 241.5C216.292 236.411 216.479 235.111 217.441 233.528C219.808 229.63 225.691 228.491 229.477 231.197ZM338.002 230.54C345.938 234.156 343.192 246.561 334.455 246.561C332.152 246.561 328.852 244.97 327.498 243.206C325.041 240.008 325.639 234.907 328.823 231.894C331.62 229.245 334.295 228.851 338.002 230.54ZM320.502 249.252C324.195 251.43 325.63 257.132 323.387 260.718C320.882 264.722 315.41 266.092 311.494 263.696C308.98 262.157 307.183 258.143 307.683 255.178C308.657 249.393 315.431 246.261 320.502 249.252ZM357.214 249.357C359.558 250.696 361.03 253.474 361.03 256.558C361.03 261.831 357.106 265.237 351.639 264.71C349.179 264.472 348.454 264.097 346.593 262.095C344.666 260.02 344.421 259.428 344.421 256.848C344.421 253.45 345.456 251.141 347.616 249.719C350.893 247.565 353.877 247.453 357.214 249.357ZM340.029 268.817C342.358 270.997 342.427 271.166 342.427 274.675C342.427 278.649 341.461 280.551 338.558 282.29C336.432 283.562 332.325 283.507 330.053 282.175C324.83 279.113 324.676 270.818 329.784 267.692C330.984 266.957 332.637 266.575 334.619 266.574C337.338 266.571 337.864 266.79 340.029 268.817Z" fill="white"/>
<defs>
<linearGradient id="paint0_linear_282_85" x1="59.5" y1="3.35792e-06" x2="465.5" y2="527" gradientUnits="userSpaceOnUse">
<stop stop-color="#000000"/>
<stop offset="1" stop-color="#FAFA33"/>
</linearGradient>
</defs>
</svg>
