<svg width="559" height="559" viewBox="0 0 559 559" fill="none" xmlns="http://www.w3.org/2000/svg">
<circle cx="279.5" cy="279.5" r="279.5" fill="url(#paint0_linear_282_83)"/>
<path fill-rule="evenodd" clip-rule="evenodd" d="M215.697 186.57C198.01 189.466 183.831 196.897 171.377 209.798C161.03 220.517 154.313 233.089 151.21 247.547C149.607 255.019 149.595 268.843 151.186 276.176C153.163 285.287 157.039 295.241 161.131 301.717L162.498 303.88L190.583 303.862L218.667 303.845L223.999 294.905C227.047 289.793 229.952 285.522 230.782 284.931C233.016 283.338 236.213 283.174 238.618 284.527C240.325 285.487 242.211 288.154 251.439 302.655C257.389 312.006 262.402 319.653 262.579 319.649C262.756 319.645 269.624 305.389 277.841 287.968C286.057 270.548 293.302 255.472 293.938 254.465C297.102 249.469 303.904 249.98 307.084 255.454C307.841 256.756 314 268.127 320.77 280.723L333.08 303.625L365.185 303.756L397.29 303.887L399.338 300.331C413.193 276.277 413.562 248.895 400.344 225.674C389.053 205.839 370.25 192.058 347.906 187.242C340.476 185.641 326.68 185.639 319.262 187.238C306.418 190.007 295.074 195.404 284.147 203.945C281.506 206.009 279.693 207.096 279.297 206.853C278.948 206.641 277.46 205.488 275.989 204.292C265.787 195.997 253.245 189.971 240.53 187.254C234.311 185.926 221.747 185.58 215.697 186.57ZM289.086 299.925C268.798 342.86 269.694 341.113 267.238 342.492C264.678 343.929 261.534 343.799 259.261 342.162C258.447 341.576 252.947 333.462 246.65 323.556C240.508 313.894 235.342 306.077 235.17 306.183C234.998 306.289 233.424 308.755 231.672 311.663C229.64 315.034 227.906 317.301 226.882 317.921C225.375 318.833 223.728 318.909 199.963 319.147L174.649 319.402L225.443 369.877C270.208 414.361 276.463 420.395 278.135 420.709C282.729 421.572 280.178 423.879 334.336 369.862C361.881 342.389 384.494 319.739 384.587 319.529C384.68 319.319 371.788 319.147 355.937 319.147C323.78 319.147 324.724 319.246 322.384 315.633C321.732 314.627 316.712 305.449 311.227 295.236C305.743 285.025 301.075 276.489 300.854 276.269C300.634 276.048 295.338 286.693 289.086 299.925Z" fill="white"/>
<defs>
<linearGradient id="paint0_linear_282_83" x1="59.5" y1="3.35792e-06" x2="465.5" y2="527" gradientUnits="userSpaceOnUse">
<stop stop-color="#000000"/>
<stop offset="1" stop-color="#FAFA33"/>
</linearGradient>
</defs>
</svg>
