<svg xmlns="http://www.w3.org/2000/svg" viewBox="0 0 90.58 104.33"><defs><style>.cls-1{fill:#fff;}</style></defs><g id="Layer_2" data-name="Layer 2"><g id="DESIGNED_BY_FREEPIK" data-name="DESIGNED BY FREEPIK"><path class="cls-1" d="M45.49,0c2,1.44,4.28,2.58,6.44,3.83Q70.74,14.72,89.58,25.54a1.73,1.73,0,0,1,1,1.74q-.06,25.07,0,50.11a1.49,1.49,0,0,1-.88,1.5Q67.87,91.46,46.06,104.08a1.32,1.32,0,0,1-1.54,0Q22.67,91.42.79,78.83A1.41,1.41,0,0,1,0,77.39Q0,52.24,0,27.08a1.41,1.41,0,0,1,.82-1.42Q22.53,13.16,44.2.62c.31-.18.69-.26.88-.62Zm2.86,95.48c.39.08.58-.16.8-.29q17.29-10,34.58-19.92a1.33,1.33,0,0,0,.71-1.38q0-19.86,0-39.7c0-.28.13-.59-.13-.89-.31.17-.6.32-.89.49Q66.29,43.66,49.18,53.51a1.47,1.47,0,0,0-.85,1.5q0,19.76,0,39.49Zm-6.18.14c0-.23,0-.29,0-.36q0-20.3,0-40.59c0-.68-.36-.87-.8-1.12L7,33.67c-.24-.14-.46-.41-.82-.29,0,.1,0,.2,0,.3q0,20.19,0,40.39a1.25,1.25,0,0,0,.81,1.22L31.69,89.58ZM9.24,27.89l1.16.68q17,9.78,33.91,19.59a1.64,1.64,0,0,0,1.92,0q15.59-9,31.19-18l3.88-2.26c-.21-.14-.31-.23-.43-.3Q63.38,17.52,45.9,7.4a1.1,1.1,0,0,0-1.28,0C42.45,8.73,40.27,10,38.1,11.22Z"/></g></g></svg>