<svg width="559" height="559" viewBox="0 0 559 559" fill="none" xmlns="http://www.w3.org/2000/svg">
<circle cx="279.5" cy="279.5" r="279.5" fill="url(#paint0_linear_282_88)"/>
<path fill-rule="evenodd" clip-rule="evenodd" d="M226.543 165.18L173.831 178.327L173.454 183.26C172.819 191.582 172.861 243.309 173.512 254.206C175.825 292.901 181.126 317.883 191.552 339.221C206.434 369.678 231.044 389.655 273.119 405.43L279.973 408L286.287 405.709C322.516 392.565 348.421 373.525 363.088 349.262C377.068 326.135 383.835 298.646 386.49 254.206C387.137 243.365 387.181 192.343 386.55 183.478L386.178 178.262L333.217 165.114C304.087 157.883 280.03 151.981 279.755 152C279.48 152.019 255.535 157.95 226.543 165.18ZM283.81 220.406C284.941 220.921 286.515 222.192 287.308 223.231L288.749 225.122L288.89 245.04L289.031 264.958H307.28C319.35 264.958 326.3 265.152 327.805 265.531C335.483 267.466 337.184 277.455 330.604 281.969L328.794 283.211L308.897 283.352L288.998 283.494V303.062V322.63L287.798 324.68C284.429 330.435 275.581 330.435 272.211 324.68L271.011 322.63V303.062V283.494L251.113 283.352L231.215 283.211L229.406 281.969C224.871 278.859 223.92 272.561 227.365 268.463C230.13 265.174 229.785 265.223 251.384 265.056L270.979 264.904L271.12 245.013L271.261 225.122L272.702 223.231C274.35 221.069 277.453 219.472 280.005 219.472C280.967 219.472 282.679 219.892 283.81 220.406Z" fill="white"/>
<defs>
<linearGradient id="paint0_linear_282_88" x1="59.5" y1="3.35792e-06" x2="465.5" y2="527" gradientUnits="userSpaceOnUse">
<stop stop-color="#000000"/>
<stop offset="1" stop-color="#FAFA33"/>
</linearGradient>
</defs>
</svg>
