<svg xmlns="http://www.w3.org/2000/svg" viewBox="0 0 80 67.53"><defs><style>.cls-1{fill:#fff;}</style></defs><g id="Layer_2" data-name="Layer 2"><g id="DESIGNED_BY_FREEPIK" data-name="DESIGNED BY FREEPIK"><path class="cls-1" d="M0,43.54c5.11-1.46,6.55-4.49,6.29-8.38C5.15,18.62,17.87,3,34.23.46a34.25,34.25,0,0,1,25.62,5.9c-2,1-3.86,1.9-5.66,2.9-.76.42-1.23,0-1.79-.28-11-5-21.3-3.73-30.61,4-7,5.75-10.24,14.68-9.25,24.14.61.27,1-.21,1.46-.44L78.43,3.87c.48-.25.91-.78,1.57-.51v6.76c-.6-.16-1,.28-1.45.51Q40.18,30.16,1.82,49.69c-.56.29-1,.91-1.82.6Z"/><path class="cls-1" d="M80,24c-4.4,1-6.55,3.77-6.27,8A33.81,33.81,0,0,1,21,61.7c-.24-.16-.47-.35-.74-.55l.65-.39c3.22-2.12,6.13-2.45,10.15-1,19.19,7.07,39-9.12,36.39-29.42-.72-.15-1.2.37-1.75.66Q33.63,47.32,1.59,63.62c-.49.25-.92.78-1.59.54V57.41c.65.09,1.09-.38,1.6-.64Q39.89,37.3,78.17,17.83c.56-.28,1.06-.91,1.83-.6Z"/></g></g></svg>