<svg width="559" height="559" viewBox="0 0 559 559" fill="none" xmlns="http://www.w3.org/2000/svg">
<circle cx="279.5" cy="279.5" r="279.5" fill="url(#paint0_linear_282_87)"/>
<path fill-rule="evenodd" clip-rule="evenodd" d="M277.189 161.443C274.506 162.518 247.933 178.153 248.277 178.454C248.485 178.636 266.028 188.807 287.262 201.055C320.93 220.477 326.002 223.259 326.914 222.809C330.026 221.273 357.01 205.39 357.074 205.056C357.144 204.692 292.584 167.105 284.513 162.811C280.936 160.908 279.291 160.601 277.189 161.443ZM217.359 195.782C208.714 200.77 201.819 205.023 202.038 205.236C202.515 205.697 277.207 248.846 278.737 249.544C279.651 249.96 281.989 248.769 295.123 241.195C303.55 236.337 310.61 232.206 310.813 232.017C311.087 231.761 233.922 186.715 233.209 186.715C233.137 186.715 226.004 190.795 217.359 195.782ZM193.922 261.313V304.765L195.016 306.937C196.088 309.062 196.772 309.49 227.492 327.229C244.751 337.196 261.883 347.091 265.562 349.218L272.252 353.086V307.924V262.763L233.375 240.312C211.993 227.964 194.368 217.861 194.21 217.861C194.051 217.861 193.922 237.414 193.922 261.313ZM348.758 227.002L333.067 236.093L333.065 245.834C333.064 254.632 332.972 255.727 332.116 257.132C330.104 260.432 326.31 261.506 322.752 259.783C319.521 258.219 318.793 256.568 318.487 250.124L318.228 244.671L302.538 253.723L286.848 262.774V307.974V353.172L287.942 352.482C288.545 352.103 305.457 342.325 325.526 330.754C345.595 319.183 362.324 309.47 362.7 309.169C363.077 308.868 363.784 307.745 364.271 306.675C365.106 304.84 365.157 302.242 365.167 261.294C365.173 237.406 365.014 217.872 364.813 217.886C364.612 217.899 357.388 222.001 348.758 227.002ZM175.92 357.313C168.824 358.836 161.703 364.068 158.47 370.136C156.559 373.721 155 379.647 155 383.322C155 386.773 156.471 392.637 158.187 396.024C159.755 399.119 163.98 403.665 167.222 405.747C172.81 409.333 180.966 410.814 187.49 409.427C195.813 407.658 202.026 402.754 205.688 395.064L207.788 390.654L217.118 390.638L226.447 390.622L227.666 393.283C229.128 396.478 232.675 400.417 236.006 402.543C242.809 406.886 251.768 407.243 259.216 403.468C262.761 401.671 266.954 397.312 268.656 393.654L270.063 390.632H279.55H289.037L290.444 393.654C294.348 402.045 304.557 407.317 314.054 405.847C321.316 404.722 328.162 399.872 331.199 393.701L332.715 390.622L342.013 390.638L351.312 390.654L353.411 395.064C359.284 407.397 373.039 412.994 386.212 408.411C405.146 401.825 410.168 377.418 395.403 363.748C383.601 352.822 365.395 354.544 355.68 367.506C354.476 369.112 353.026 371.685 352.458 373.224L351.425 376.023H342.069H332.715L331.179 372.904C325.819 362.012 312.123 357.471 300.725 362.806C296.535 364.767 292.333 368.93 290.444 372.99L289.037 376.012H279.55H270.063L268.656 372.99C266.767 368.93 262.564 364.767 258.374 362.806C246.977 357.471 233.281 362.012 227.921 372.904L226.385 376.023H217.031H207.677L206.813 373.711C205.544 370.315 201.977 365.137 199.367 362.904C193.2 357.629 184.317 355.511 175.92 357.313Z" fill="white"/>
<defs>
<linearGradient id="paint0_linear_282_87" x1="59.5" y1="3.35792e-06" x2="465.5" y2="527" gradientUnits="userSpaceOnUse">
<stop stop-color="#000000"/>
<stop offset="1" stop-color="#FAFA33"/>
</linearGradient>
</defs>
</svg>
