<svg xmlns="http://www.w3.org/2000/svg" viewBox="0 0 55.98 76.88"><defs><style>.cls-1{fill:#fff;}</style></defs><g id="Layer_2" data-name="Layer 2"><g id="DESIGNED_BY_FREEPIK" data-name="DESIGNED BY FREEPIK"><path class="cls-1" d="M36.92,36.9a19,19,0,0,1,5.86.36,16.69,16.69,0,0,1,10.71,7.63,15.25,15.25,0,0,1,2.38,7.46,57.63,57.63,0,0,1-.35,10.83,11.37,11.37,0,0,1-1.69,4.2,19.32,19.32,0,0,1-3.22,4.19,18.34,18.34,0,0,1-13.43,5.31,21.65,21.65,0,0,1-7.93-1.42A15.11,15.11,0,0,1,26.52,74a19.08,19.08,0,0,1-4-3.56A8.52,8.52,0,0,1,20.54,64a7.43,7.43,0,0,1,1.67-4.31,3.7,3.7,0,0,1,4.59-1.17,7.5,7.5,0,0,1,2.7,1.77c1.72,1.8,2,3.77.65,6.36a12.46,12.46,0,0,1-2,2.66,11.76,11.76,0,0,0,4.41,2.4,11.61,11.61,0,0,0,4.8.37c4.41-.57,7.24-3.13,8.73-7.18a26.93,26.93,0,0,0,1-15.49,9.86,9.86,0,0,0-3.43-5.79,9.65,9.65,0,0,0-7.12-1.84,23.45,23.45,0,0,0-8.06,2.34c-.79.38-.85.34-.9-.51a2.13,2.13,0,0,1,.51-1.45q8.3-11,16.55-22c.05-.07.09-.16.14-.24-.2-.18-.42-.1-.61-.1H21.59c-.73,0-.73,0-.73.74q0,11.82,0,23.65a7.78,7.78,0,0,0,1.55,5,5.46,5.46,0,0,0,6.28,1.46,10.72,10.72,0,0,0,3.69-2.77,19.44,19.44,0,0,1,2.14-2.21c.74-.57,1.27-.44,1.71.38a3.11,3.11,0,0,1,.24,2.22A9.41,9.41,0,0,1,32,54.26a11.47,11.47,0,0,1-7.2,1.5,18.32,18.32,0,0,1-3.47-.45A13.17,13.17,0,0,1,16.36,53a9.77,9.77,0,0,1-3.94-7.82V20.56c0-.75,0-.75-.72-.75-3.2,0-6.39,0-9.59,0-.53,0-1.07,0-1.6,0-.37,0-.51-.14-.51-.51q0-1.71,0-3.42c0-.33.12-.45.43-.45H11.85c.37,0,.49-.17.49-.53q0-4.58,0-9.14a1.42,1.42,0,0,0-.46-1.07c-.65-.64-1.28-1.3-1.94-1.93A1,1,0,0,1,9.6,2,8.37,8.37,0,0,0,9.54.61c-.06-.27.1-.61.58-.61,2.54,0,5.07,0,7.6,0a1,1,0,0,1,.54.17c.71.4,1.41.82,2.15,1.18a1,1,0,0,1,.61,1c0,4.09,0,8.19,0,12.28,0,.56.17.71.71.71,4.59,0,9.18,0,13.77,0H51.64a1.43,1.43,0,0,1,1.15.49c.61.65,1.26,1.27,1.89,1.9s.53.82,0,1.34c-2.15,2.15-4.3,4.31-6.46,6.45-.37.36-.64.86-1.23.94-.25.88-1,1.31-1.62,1.9-2.67,2.72-5.38,5.39-8.07,8.09C37.21,36.56,37.12,36.67,36.92,36.9Z"/></g></g></svg>