<svg xmlns="http://www.w3.org/2000/svg" viewBox="0 0 73.35 85.95"><defs><style>.cls-1{fill:#fff;}</style></defs><g id="Layer_2" data-name="Layer 2"><g id="DESIGNED_BY_FREEPIK" data-name="DESIGNED BY FREEPIK"><path class="cls-1" d="M21.34,60.54c-.37-.95-.75-1.9-1.1-2.85-.93-2.56-1.84-5.12-2.76-7.67q-2.2-6.09-4.43-12.17l-2.81-7.77c-.05-.16-.09-.32-.13-.48a2.78,2.78,0,0,1,.73.64c.43.41.62.41,1,0l1.55-1.54c.19-.18.31-.46.6-.53,1.59,4.4,3.17,8.81,4.77,13.21,1.45,4,2.92,8,4.38,12.06s2.95,8.16,4.42,12.23c.64,1.75,1.27,3.49,1.91,5.23.12.33.31.62.71.57a.65.65,0,0,0,.61-.66q.38-3.85.77-7.69c.35-3.59.71-7.18,1.06-10.77.31-3.16.61-6.33.92-9.5a1.16,1.16,0,0,0-.31-1C32,40.43,30.77,39,29.52,37.48c-3-3.57-6.08-7.13-9.1-10.72a28.71,28.71,0,0,1-2.36-2.9c.36,0,.52-.32.73-.54a1,1,0,0,0-.34-1.65.76.76,0,0,1-.39-.4,1,1,0,0,0-1.63-.3c-.18.14-.26.41-.53.45l-5.09-6c-.25-.29-.53-.47-.9-.25a.67.67,0,0,0-.26.91c.74,2,1.47,4.07,2.2,6.11.56,1.54,1.18,3.07,1.64,4.65a3.64,3.64,0,0,0-1.62-.66c-.58,0-.76-.07-1.06.56h0c-.59.23-.87.81-1.32,1.21q-2.82-7.8-5.65-15.6L.17,2.25a1.5,1.5,0,0,1,.47-2A1.52,1.52,0,0,1,2,.06l8.26,2L21,4.61,32.13,7.26,42.8,9.8c5.72,1.36,11.43,2.75,17.16,4.07a6.41,6.41,0,0,1,2.28,1.28c2.3,1.67,4.59,3.37,6.88,5.06,1.11.82,2.23,1.63,3.35,2.43a1.6,1.6,0,0,1,.43,2.54c-1.81,2.72-3.61,5.46-5.43,8.18s-3.59,5.34-5.37,8l-8,12-6.37,9.53q-3.93,5.9-7.86,11.8c-1.74,2.61-3.5,5.21-5.25,7.82-.55.83-1.08,1.67-1.62,2.5a1.59,1.59,0,0,1-1.59.88,1.56,1.56,0,0,1-1.32-1.16c-1.34-3.73-2.72-7.45-4.07-11.17q-1.72-4.77-3.43-9.54c0-.1-.05-.21-.08-.32.67-.6.83-1.08.47-1.57A6.24,6.24,0,0,0,21.34,60.54Zm36.34-32c.3-.17.6-.36.91-.51l7.16-3.53c.84-.42.87-.91.12-1.47l-4-3c0-.24-.15-.36-.29-.51-.36-.36-.74-.71-1.08-1.09a1.3,1.3,0,0,0-1.5-.4,1.63,1.63,0,0,1-1.41-.14,1.22,1.22,0,0,0-1.49.16c-1.21,1.13-2.43,2.26-3.53,3.51a1.5,1.5,0,0,0-.2,1.95,1,1,0,0,1,.08.93,1.33,1.33,0,0,0,.61,1.83,2.17,2.17,0,0,1-.23.3q-2.48,2.63-5,5.24c-.29.3-.39.58-.14.92a.66.66,0,0,0,.93.17q1-.52,2.07-1c1.83-.89,3.61-1.88,5.49-2.67A1.08,1.08,0,0,0,57.68,28.52Zm-38.77-10a10.22,10.22,0,0,0-1.27,1.19.27.27,0,0,0,0,.4l1.95,1.94c.17.17.33.1.48,0a.29.29,0,0,0,0-.44l-.35-.35c-.15-.15-.3-.31-.1-.52s.28-.36.56-.19a.65.65,0,0,0,.47.1,4.75,4.75,0,0,1,.74.81l9.43,11.09q2.15,2.52,4.27,5.06c.62.72.92.74,1.56.06l.89-1,8.35-8.82L55,18.21c.55-.58.41-1.1-.36-1.29-1-.23-1.9-.42-2.85-.65q-7.45-1.78-14.9-3.57L21.26,9l-11-2.62c-.36-.09-.67-.09-.87.26a.7.7,0,0,0,.18.89c2.17,2.55,4.34,5.09,6.5,7.65C17,16.28,18,17.36,18.91,18.55Zm16,53.76a.66.66,0,0,0,.43.8c.44.17.67-.14.88-.47s.28-.39.41-.58c2.73-4.11,5.44-8.21,8.17-12.31s5.43-8.08,8.14-12.13,5.31-8,8-12l2.65-4a.64.64,0,0,0-.79-1c-.23.11-.48.19-.71.31-2.61,1.3-5.22,2.62-7.83,3.91q-7.89,3.9-15.78,7.76a1.3,1.3,0,0,0-.76,1.21q-.15,2.12-.36,4.23c-.24,2.43-.5,4.87-.74,7.3s-.48,5.09-.73,7.63Z"/><path class="cls-1" d="M10,29.15l-.09-.3c0-.06.14-.13.13-.15-.31-.81.26-1.24.72-1.73a.85.85,0,0,0,.09-.24h0c.33,0,.47-.49.82-.29a.85.85,0,0,0,.71.07c.19-.05.33.06.47.19a3.81,3.81,0,0,0,.94.81l.16.43a3.58,3.58,0,0,1-.59.29,2.17,2.17,0,0,0-1.66,1.66c-.12.46-.31.5-.68.16S10.39,29.34,10,29.15Zm2.4-1.07a.91.91,0,0,0-.85-.79.84.84,0,0,0-.7.79.75.75,0,0,0,.78.75A.72.72,0,0,0,12.36,28.08Z"/><path class="cls-1" d="M10,29.15c.43.19.68.6,1,.9s.56.3.68-.16a2.17,2.17,0,0,1,1.66-1.66,3.58,3.58,0,0,0,.59-.29c.1,0,.12.12.12.22-.29.07-.41.35-.6.53l-1.55,1.54c-.42.42-.61.42-1,0a2.78,2.78,0,0,0-.73-.64A.89.89,0,0,1,10,29.15Z"/><path class="cls-1" d="M21.34,60.54A6.24,6.24,0,0,1,23,62.18c.36.49.2,1-.47,1.57a1,1,0,0,1-.22-.54c.39-.15.42-.44.24-.75a1.16,1.16,0,0,0-.78-.7A7.61,7.61,0,0,1,21.34,60.54Z"/><path class="cls-1" d="M10.81,26.73a.85.85,0,0,1-.09.24c-.46.49-1,.92-.72,1.73,0,0-.09.09-.13.15a2.35,2.35,0,0,1-.38-.91C9.94,27.54,10.22,27,10.81,26.73Z"/><path class="cls-1" d="M21.75,61.76a1.16,1.16,0,0,1,.78.7c.18.31.15.6-.24.75Z"/><path class="cls-1" d="M53.37,26c-.08.13-.12.28-.3.32a1.33,1.33,0,0,1-.61-1.83,1,1,0,0,0-.08-.93,1.5,1.5,0,0,1,.2-1.95c1.1-1.25,2.32-2.38,3.53-3.51a1.22,1.22,0,0,1,1.49-.16,1.63,1.63,0,0,0,1.41.14,1.3,1.3,0,0,1,1.5.4c.34.38.72.73,1.08,1.09.14.15.31.27.29.51-.42-.08-.62-.46-.94-.67a1.41,1.41,0,0,0-.85-.31c-.12-.51-.45-.72-1-.48a1.67,1.67,0,0,1-1.66-.16.91.91,0,0,0-1.2.2l-3,3c-.67.67-.72,1-.25,1.84a.87.87,0,0,1,.12.84A1.22,1.22,0,0,0,53.37,26Z"/><path class="cls-1" d="M18.91,18.55a1.8,1.8,0,0,1,.54.65c-.53,0-.75.34-1,.69a1.43,1.43,0,0,0,.57.52c.31-.26.7-.46.64-1a5.85,5.85,0,0,1,1,1.2.65.65,0,0,1-.47-.1c-.28-.17-.41,0-.56.19s-.05.37.1.52l.35.35a.29.29,0,0,1,0,.44c-.15.15-.31.22-.48,0l-1.95-1.94a.27.27,0,0,1,0-.4A10.22,10.22,0,0,1,18.91,18.55Z"/><path class="cls-1" d="M16.32,21.89l-.42-.47c.27,0,.35-.31.53-.45a1,1,0,0,1,1.63.3.76.76,0,0,0,.39.4,1,1,0,0,1,.34,1.65c-.21.22-.37.52-.73.54-.18,0-.21-.2-.32-.3.18-.21.37-.41.55-.61a.39.39,0,0,0,.05-.55.42.42,0,0,0-.59-.08l-.64.43a.32.32,0,0,1-.23-.27c.05-.28.34-.38.45-.62s.17-.3,0-.45a.38.38,0,0,0-.46,0A1.26,1.26,0,0,0,16.32,21.89Z"/><path class="cls-1" d="M13.61,27.05a.7.7,0,0,1,.14.46,3.81,3.81,0,0,1-.94-.81c-.14-.13-.28-.24-.47-.19a.85.85,0,0,1-.71-.07c-.35-.2-.49.33-.82.29.3-.63.48-.58,1.06-.56a3.64,3.64,0,0,1,1.62.66h0A.18.18,0,0,0,13.61,27.05Z"/><path class="cls-1" d="M56.23,29.24a7,7,0,0,1,1.45-.72A1.08,1.08,0,0,1,56.23,29.24Z"/><path class="cls-1" d="M12.36,28.08a.72.72,0,0,1-.77.75.75.75,0,0,1-.78-.75.84.84,0,0,1,.7-.79A.91.91,0,0,1,12.36,28.08Z"/><path class="cls-1" d="M19.65,19.43c.06.52-.33.72-.64,1a1.43,1.43,0,0,1-.57-.52c.26-.35.48-.73,1-.69Z"/><path class="cls-1" d="M17.11,22.75l.64-.43a.42.42,0,0,1,.59.08.39.39,0,0,1-.05.55c-.18.2-.37.4-.55.61A1.92,1.92,0,0,1,17.11,22.75Z"/><path class="cls-1" d="M16.32,21.89a1.26,1.26,0,0,1,.56-.51.38.38,0,0,1,.46,0c.16.15.05.3,0,.45s-.4.34-.45.62A1.86,1.86,0,0,1,16.32,21.89Z"/><path class="cls-1" d="M13.61,27.05a.18.18,0,0,1-.14-.22C13.61,26.84,13.58,27,13.61,27.05Z"/><path class="cls-1" d="M53.37,26a1.22,1.22,0,0,1-.27-1.69.87.87,0,0,0-.12-.84c-.47-.85-.42-1.17.25-1.84l3-3a.91.91,0,0,1,1.2-.2,1.67,1.67,0,0,0,1.66.16c.57-.24.9,0,1,.48a4,4,0,0,0-1.11,1l-.87.89a2.69,2.69,0,0,0-1.66,0,2.13,2.13,0,0,0-1.1,3A25.72,25.72,0,0,1,53.37,26Z"/><path class="cls-1" d="M55.35,23.92a2.13,2.13,0,0,1,1.1-3,2.69,2.69,0,0,1,1.66,0Z"/></g></g></svg>